<svg width="70" height="70" viewBox="0 0 70 70" fill="none" xmlns="http://www.w3.org/2000/svg">
<g id="Frame 15">
<circle id="Ellipse 33" cx="30" cy="39" r="30" fill="#4042E2" fill-opacity="0.2"/>
<g id="Frame 15_2">
<path id="Subtract" d="M10 8H55.1762C55.7285 8 56.1762 8.44771 56.1762 9V17.3238L58.1762 15.3238V9C58.1762 7.34315 56.8331 6 55.1762 6H10C8.34315 6 7 7.34315 7 9V59.8625C7 61.5193 8.34314 62.8625 10 62.8625H55.1762C56.8331 62.8625 58.1762 61.5193 58.1762 59.8625V26.0297L56.1762 28.1249V59.8625C56.1762 60.4148 55.7285 60.8625 55.1762 60.8625H10C9.44772 60.8625 9 60.4148 9 59.8625V9C9 8.44772 9.44772 8 10 8Z" fill="#4042E2"/>
<path id="Shape" fill-rule="evenodd" clip-rule="evenodd" d="M22.5627 18.2268C22.5627 16.759 23.5929 15.7578 24.6446 15.7578C25.6962 15.7578 26.7264 16.759 26.7264 18.2268V18.8538C26.7264 20.25 25.7836 21.2436 24.7528 21.3191L24.6327 21.3227C23.5852 21.3152 22.5627 20.316 22.5627 18.8538V18.2268ZM24.6446 14.0078C22.4303 14.0078 20.8127 16.001 20.8127 18.2268V18.8538C20.8127 21.0795 22.4303 23.0727 24.6446 23.0727H24.6578L24.6711 23.0723L24.8228 23.0677L24.838 23.0673L24.8532 23.0663C26.9786 22.9275 28.4764 20.9988 28.4764 18.8538V18.2268C28.4764 16.001 26.8588 14.0078 24.6446 14.0078ZM17.9648 29.7344C17.9648 27.6095 19.9111 25.7328 22.5107 25.7328H26.1247C28.7249 25.7328 30.6705 27.6092 30.6705 29.7344C30.6705 30.5126 29.9377 31.2978 28.8351 31.2978H19.8003C18.6977 31.2978 17.9648 30.5126 17.9648 29.7344ZM22.5107 23.9828C19.1234 23.9828 16.2148 26.4734 16.2148 29.7344C16.2148 31.6486 17.91 33.0477 19.8003 33.0477H28.8351C30.7254 33.0477 32.4205 31.6486 32.4205 29.7344C32.4205 26.4732 29.5127 23.9828 26.1247 23.9828H22.5107Z" fill="#4042E2"/>
<path id="Vector 10" d="M39.9805 15.6666H50.2157" stroke="#4042E2" stroke-width="2" stroke-linecap="round" stroke-linejoin="round"/>
<path id="Vector 12" d="M16.0977 46.941H33.1564" stroke="#4042E2" stroke-width="2" stroke-linecap="round" stroke-linejoin="round"/>
<path id="Vector 14" d="M16.0977 41.2548H33.1564" stroke="#4042E2" stroke-width="1.75" stroke-linecap="round" stroke-linejoin="round"/>
<path id="Vector 11" d="M39.9805 20.7842H50.2157" stroke="#4042E2" stroke-width="2" stroke-linecap="round" stroke-linejoin="round"/>
<path id="Vector 13" d="M16.0977 52.6272H33.1564" stroke="#4042E2" stroke-width="2" stroke-linecap="round" stroke-linejoin="round"/>
<path id="Vector 17" d="M32.8984 47.04L31.9607 46.6925C31.8187 47.076 31.9243 47.5073 32.2276 47.7816C32.5308 48.0559 32.9705 48.1179 33.3378 47.9383L32.8984 47.04ZM36.2777 37.92L35.5664 37.2171L35.4149 37.3704L35.34 37.5725L36.2777 37.92ZM41.3466 42.9075L41.786 43.8058L41.9356 43.7326L42.0535 43.6148L41.3466 42.9075ZM55.4268 28.835L56.1337 29.5423V29.5423L55.4268 28.835ZM50.3579 23.67L49.6612 22.9527L49.6538 22.9598L49.6466 22.9671L50.3579 23.67ZM63.987 18.2299L63.2635 18.9202L63.987 18.2299ZM63.9592 20.3292L63.2542 19.62L63.9592 20.3292ZM58.8472 15.1176L59.5707 15.8079L58.8472 15.1176ZM33.8361 47.3874L37.2154 38.2674L35.34 37.5725L31.9607 46.6925L33.8361 47.3874ZM60.2943 15.8079L63.2635 18.9202L64.7105 17.5397L61.7413 14.4273L60.2943 15.8079ZM40.9072 42.0092L32.459 46.1417L33.3378 47.9383L41.786 43.8058L40.9072 42.0092ZM42.0479 42.1947L36.9791 37.2072L35.5763 38.6328L40.6452 43.6203L42.0479 42.1947ZM63.2542 19.62L59.2275 23.6226L60.6375 25.041L64.6641 21.0384L63.2542 19.62ZM55.5871 19.9835L59.5707 15.8079L58.1236 14.4273L54.1401 18.6029L55.5871 19.9835ZM60.6375 23.6226L55.5686 18.584L54.1586 20.0024L59.2275 25.041L60.6375 23.6226ZM59.2256 23.6245L54.7199 28.1277L56.1337 29.5423L60.6394 25.0391L59.2256 23.6245ZM54.7199 28.1277L40.6397 42.2002L42.0535 43.6148L56.1337 29.5423L54.7199 28.1277ZM36.989 38.6228L51.0693 24.3728L49.6466 22.9671L35.5664 37.2171L36.989 38.6228ZM51.0547 24.3873L55.5604 20.0105L54.1668 18.5759L49.6612 22.9527L51.0547 24.3873ZM56.1405 28.1346L51.0716 22.9695L49.6442 24.3704L54.7131 29.5354L56.1405 28.1346ZM63.2635 18.9202C63.4513 19.1171 63.4472 19.4281 63.2542 19.62L64.6641 21.0384C65.6292 20.0791 65.6498 18.5242 64.7105 17.5397L63.2635 18.9202ZM61.7413 14.4273C60.7564 13.3949 59.1086 13.3949 58.1236 14.4273L59.5707 15.8079C59.7677 15.6014 60.0973 15.6014 60.2943 15.8079L61.7413 14.4273Z" fill="#4042E2"/>
</g>
</g>
</svg>
