<svg width="688" height="453" viewBox="0 0 688 453" fill="none" xmlns="http://www.w3.org/2000/svg">
<path d="M365.899 424.382C365.899 424.382 320.878 395.164 324.489 345.292L257.918 369.195C257.918 369.195 265.101 425.293 302.89 445.298L365.899 424.382Z" fill="#EBF3FA"/>
<path d="M339.209 409.515L298.32 425.032L298.724 426.096L339.613 410.579L339.209 409.515Z" fill="#D2E0FF"/>
<path d="M333.561 404.969L292.508 419.359L292.884 420.433L333.938 406.043L333.561 404.969Z" fill="#D2E0FF"/>
<path d="M329.313 399.054L284.496 413.786L284.852 414.868L329.668 400.135L329.313 399.054Z" fill="#D2E0FF"/>
<path d="M324.168 391.481L279.027 406.11L279.378 407.193L324.519 392.564L324.168 391.481Z" fill="#D2E0FF"/>
<path d="M320.61 384.153L275.469 398.782L275.82 399.865L320.961 385.236L320.61 384.153Z" fill="#D2E0FF"/>
<path d="M318.836 374.855L273.699 389.498L274.051 390.581L319.187 375.938L318.836 374.855Z" fill="#D2E0FF"/>
<g opacity="0.8">
<path d="M152.92 93.3931L150.872 92.2898C148.682 91.1115 145.968 91.9341 144.814 94.123L135.757 111.354C134.604 113.543 135.447 116.287 137.632 117.468L140.569 119.052C140.999 119.28 141.528 119.119 141.753 118.693C141.975 118.262 141.812 117.728 141.386 117.498L138.45 115.914C137.117 115.199 136.604 113.528 137.308 112.191L146.367 94.965C147.066 93.63 148.721 93.1281 150.056 93.8484L152.105 94.9518C153.437 95.6669 153.95 97.3378 153.246 98.6747L147.234 110.113C147.009 110.539 147.175 111.078 147.6 111.308C148.03 111.536 148.559 111.376 148.784 110.95L154.797 99.5115C155.953 97.3155 155.11 94.5715 152.92 93.3931Z" fill="white"/>
<path d="M163.085 76.2823L159.411 74.3008C156 72.4648 151.658 73.9446 149.737 77.6074L136.117 103.507C135.895 103.938 136.059 104.472 136.484 104.702C136.909 104.932 137.443 104.769 137.668 104.343L151.288 78.4442C152.762 75.6436 156.04 74.4812 158.595 75.8592L162.269 77.8408C164.825 79.2188 165.704 82.6178 164.231 85.4235L148.719 114.921C147.244 117.722 143.967 118.884 141.411 117.506C140.981 117.278 140.452 117.439 140.227 117.865C140.002 118.291 140.168 118.83 140.593 119.06C144.004 120.896 148.347 119.416 150.269 115.758L165.78 86.2552C167.702 82.5976 166.493 78.1254 163.085 76.2823Z" fill="white"/>
</g>
<path fill-rule="evenodd" clip-rule="evenodd" d="M78.1394 121.48C78.1394 124.102 75.8156 126.226 72.9466 126.226C70.0776 126.226 67.7539 124.102 67.7539 121.48C67.7539 118.859 70.0776 116.735 72.9466 116.735C75.8156 116.735 78.1394 118.859 78.1394 121.48" fill="white" fill-opacity="0.3"/>
<path fill-rule="evenodd" clip-rule="evenodd" d="M78.1394 145.209C78.1394 147.831 75.8156 149.955 72.9466 149.955C70.0776 149.955 67.7539 147.831 67.7539 145.209C67.7539 142.586 70.0776 140.463 72.9466 140.463C75.8156 140.463 78.1394 142.586 78.1394 145.209" fill="white" fill-opacity="0.3"/>
<path fill-rule="evenodd" clip-rule="evenodd" d="M105.835 145.209C105.835 147.831 103.511 149.955 100.642 149.955C97.773 149.955 95.4492 147.831 95.4492 145.209C95.4492 142.586 97.773 140.463 100.642 140.463C103.511 140.463 105.835 142.586 105.835 145.209" fill="white" fill-opacity="0.3"/>
<path fill-rule="evenodd" clip-rule="evenodd" d="M131.788 145.209C131.788 147.831 129.464 149.955 126.595 149.955C123.726 149.955 121.402 147.831 121.402 145.209C121.402 142.586 123.726 140.463 126.595 140.463C129.464 140.463 131.788 142.586 131.788 145.209" fill="white" fill-opacity="0.3"/>
<path fill-rule="evenodd" clip-rule="evenodd" d="M157.768 145.209C157.768 147.831 155.445 149.955 152.576 149.955C149.707 149.955 147.383 147.831 147.383 145.209C147.383 142.586 149.707 140.463 152.576 140.463C155.445 140.463 157.768 142.586 157.768 145.209" fill="white" fill-opacity="0.3"/>
<path fill-rule="evenodd" clip-rule="evenodd" d="M185.456 145.209C185.456 147.831 183.132 149.955 180.263 149.955C177.394 149.955 175.07 147.831 175.07 145.209C175.07 142.586 177.394 140.463 180.263 140.463C183.132 140.463 185.456 142.586 185.456 145.209" fill="white" fill-opacity="0.3"/>
<path fill-rule="evenodd" clip-rule="evenodd" d="M211.425 145.209C211.425 147.831 209.101 149.955 206.232 149.955C203.363 149.955 201.039 147.831 201.039 145.209C201.039 142.586 203.363 140.463 206.232 140.463C209.101 140.463 211.425 142.586 211.425 145.209" fill="white" fill-opacity="0.3"/>
<path fill-rule="evenodd" clip-rule="evenodd" d="M239.116 145.209C239.116 147.831 236.792 149.955 233.923 149.955C231.054 149.955 228.73 147.831 228.73 145.209C228.73 142.586 231.054 140.463 233.923 140.463C236.792 140.463 239.116 142.586 239.116 145.209" fill="white" fill-opacity="0.3"/>
<path fill-rule="evenodd" clip-rule="evenodd" d="M265.081 145.209C265.081 147.831 262.757 149.955 259.888 149.955C257.019 149.955 254.695 147.831 254.695 145.209C254.695 142.586 257.019 140.463 259.888 140.463C262.757 140.463 265.081 142.586 265.081 145.209" fill="white" fill-opacity="0.3"/>
<path fill-rule="evenodd" clip-rule="evenodd" d="M292.772 145.209C292.772 147.831 290.448 149.955 287.579 149.955C284.71 149.955 282.387 147.831 282.387 145.209C282.387 142.586 284.71 140.463 287.579 140.463C290.448 140.463 292.772 142.586 292.772 145.209" fill="white" fill-opacity="0.3"/>
<path fill-rule="evenodd" clip-rule="evenodd" d="M318.741 145.209C318.741 147.831 316.417 149.955 313.548 149.955C310.679 149.955 308.355 147.831 308.355 145.209C308.355 142.586 310.679 140.463 313.548 140.463C316.417 140.463 318.741 142.586 318.741 145.209" fill="white" fill-opacity="0.3"/>
<path fill-rule="evenodd" clip-rule="evenodd" d="M344.702 145.209C344.702 147.831 342.378 149.955 339.509 149.955C336.64 149.955 334.316 147.831 334.316 145.209C334.316 142.586 336.64 140.463 339.509 140.463C342.378 140.463 344.702 142.586 344.702 145.209" fill="white" fill-opacity="0.3"/>
<path fill-rule="evenodd" clip-rule="evenodd" d="M372.397 145.209C372.397 147.831 370.073 149.955 367.204 149.955C364.335 149.955 362.012 147.831 362.012 145.209C362.012 142.586 364.335 140.463 367.204 140.463C370.073 140.463 372.397 142.586 372.397 145.209" fill="white" fill-opacity="0.3"/>
<path fill-rule="evenodd" clip-rule="evenodd" d="M78.1394 170.517C78.1394 173.139 75.8156 175.263 72.9466 175.263C70.0776 175.263 67.7539 173.139 67.7539 170.517C67.7539 167.895 70.0776 165.772 72.9466 165.772C75.8156 165.772 78.1394 167.895 78.1394 170.517" fill="white" fill-opacity="0.3"/>
<path fill-rule="evenodd" clip-rule="evenodd" d="M105.835 170.517C105.835 173.139 103.511 175.263 100.642 175.263C97.773 175.263 95.4492 173.139 95.4492 170.517C95.4492 167.895 97.773 165.772 100.642 165.772C103.511 165.772 105.835 167.895 105.835 170.517" fill="white" fill-opacity="0.3"/>
<path fill-rule="evenodd" clip-rule="evenodd" d="M131.788 170.517C131.788 173.139 129.464 175.263 126.595 175.263C123.726 175.263 121.402 173.139 121.402 170.517C121.402 167.895 123.726 165.772 126.595 165.772C129.464 165.772 131.788 167.895 131.788 170.517" fill="white" fill-opacity="0.3"/>
<path fill-rule="evenodd" clip-rule="evenodd" d="M157.768 170.517C157.768 173.139 155.445 175.263 152.576 175.263C149.707 175.263 147.383 173.139 147.383 170.517C147.383 167.895 149.707 165.772 152.576 165.772C155.445 165.772 157.768 167.895 157.768 170.517" fill="white" fill-opacity="0.3"/>
<path fill-rule="evenodd" clip-rule="evenodd" d="M185.456 170.517C185.456 173.139 183.132 175.263 180.263 175.263C177.394 175.263 175.07 173.139 175.07 170.517C175.07 167.895 177.394 165.772 180.263 165.772C183.132 165.772 185.456 167.895 185.456 170.517" fill="white" fill-opacity="0.3"/>
<path fill-rule="evenodd" clip-rule="evenodd" d="M211.425 170.517C211.425 173.139 209.101 175.263 206.232 175.263C203.363 175.263 201.039 173.139 201.039 170.517C201.039 167.895 203.363 165.772 206.232 165.772C209.101 165.772 211.425 167.895 211.425 170.517" fill="white" fill-opacity="0.3"/>
<path fill-rule="evenodd" clip-rule="evenodd" d="M239.116 170.517C239.116 173.139 236.792 175.263 233.923 175.263C231.054 175.263 228.73 173.139 228.73 170.517C228.73 167.895 231.054 165.772 233.923 165.772C236.792 165.772 239.116 167.895 239.116 170.517" fill="white" fill-opacity="0.3"/>
<path fill-rule="evenodd" clip-rule="evenodd" d="M265.081 170.517C265.081 173.139 262.757 175.263 259.888 175.263C257.019 175.263 254.695 173.139 254.695 170.517C254.695 167.895 257.019 165.772 259.888 165.772C262.757 165.772 265.081 167.895 265.081 170.517" fill="white" fill-opacity="0.3"/>
<path fill-rule="evenodd" clip-rule="evenodd" d="M292.772 170.517C292.772 173.139 290.448 175.263 287.579 175.263C284.71 175.263 282.387 173.139 282.387 170.517C282.387 167.895 284.71 165.772 287.579 165.772C290.448 165.772 292.772 167.895 292.772 170.517" fill="white" fill-opacity="0.3"/>
<path fill-rule="evenodd" clip-rule="evenodd" d="M318.741 170.517C318.741 173.139 316.417 175.263 313.548 175.263C310.679 175.263 308.355 173.139 308.355 170.517C308.355 167.895 310.679 165.772 313.548 165.772C316.417 165.772 318.741 167.895 318.741 170.517" fill="white" fill-opacity="0.3"/>
<path fill-rule="evenodd" clip-rule="evenodd" d="M344.702 170.517C344.702 173.139 342.378 175.263 339.509 175.263C336.64 175.263 334.316 173.139 334.316 170.517C334.316 167.895 336.64 165.772 339.509 165.772C342.378 165.772 344.702 167.895 344.702 170.517" fill="white" fill-opacity="0.3"/>
<path fill-rule="evenodd" clip-rule="evenodd" d="M372.397 170.517C372.397 173.139 370.073 175.263 367.204 175.263C364.335 175.263 362.012 173.139 362.012 170.517C362.012 167.895 364.335 165.772 367.204 165.772C370.073 165.772 372.397 167.895 372.397 170.517" fill="white" fill-opacity="0.3"/>
<path fill-rule="evenodd" clip-rule="evenodd" d="M78.1394 194.245C78.1394 196.866 75.8156 198.99 72.9466 198.99C70.0776 198.99 67.7539 196.866 67.7539 194.245C67.7539 191.623 70.0776 189.499 72.9466 189.499C75.8156 189.499 78.1394 191.623 78.1394 194.245" fill="white" fill-opacity="0.3"/>
<path fill-rule="evenodd" clip-rule="evenodd" d="M105.835 194.245C105.835 196.866 103.511 198.99 100.642 198.99C97.773 198.99 95.4492 196.866 95.4492 194.245C95.4492 191.623 97.773 189.499 100.642 189.499C103.511 189.499 105.835 191.623 105.835 194.245" fill="white" fill-opacity="0.3"/>
<path fill-rule="evenodd" clip-rule="evenodd" d="M131.788 194.245C131.788 196.866 129.464 198.99 126.595 198.99C123.726 198.99 121.402 196.866 121.402 194.245C121.402 191.623 123.726 189.499 126.595 189.499C129.464 189.499 131.788 191.623 131.788 194.245" fill="white" fill-opacity="0.3"/>
<path fill-rule="evenodd" clip-rule="evenodd" d="M157.768 194.245C157.768 196.866 155.445 198.99 152.576 198.99C149.707 198.99 147.383 196.866 147.383 194.245C147.383 191.623 149.707 189.499 152.576 189.499C155.445 189.499 157.768 191.623 157.768 194.245" fill="white" fill-opacity="0.3"/>
<path fill-rule="evenodd" clip-rule="evenodd" d="M185.456 194.245C185.456 196.866 183.132 198.99 180.263 198.99C177.394 198.99 175.07 196.866 175.07 194.245C175.07 191.623 177.394 189.499 180.263 189.499C183.132 189.499 185.456 191.623 185.456 194.245" fill="white" fill-opacity="0.3"/>
<path fill-rule="evenodd" clip-rule="evenodd" d="M211.425 194.245C211.425 196.866 209.101 198.99 206.232 198.99C203.363 198.99 201.039 196.866 201.039 194.245C201.039 191.623 203.363 189.499 206.232 189.499C209.101 189.499 211.425 191.623 211.425 194.245" fill="white" fill-opacity="0.3"/>
<path fill-rule="evenodd" clip-rule="evenodd" d="M239.116 194.245C239.116 196.866 236.792 198.99 233.923 198.99C231.054 198.99 228.73 196.866 228.73 194.245C228.73 191.623 231.054 189.499 233.923 189.499C236.792 189.499 239.116 191.623 239.116 194.245" fill="white" fill-opacity="0.3"/>
<path fill-rule="evenodd" clip-rule="evenodd" d="M265.081 194.245C265.081 196.866 262.757 198.99 259.888 198.99C257.019 198.99 254.695 196.866 254.695 194.245C254.695 191.623 257.019 189.499 259.888 189.499C262.757 189.499 265.081 191.623 265.081 194.245" fill="white" fill-opacity="0.3"/>
<path fill-rule="evenodd" clip-rule="evenodd" d="M292.772 194.245C292.772 196.866 290.448 198.99 287.579 198.99C284.71 198.99 282.387 196.866 282.387 194.245C282.387 191.623 284.71 189.499 287.579 189.499C290.448 189.499 292.772 191.623 292.772 194.245" fill="white" fill-opacity="0.3"/>
<path fill-rule="evenodd" clip-rule="evenodd" d="M318.741 194.245C318.741 196.866 316.417 198.99 313.548 198.99C310.679 198.99 308.355 196.866 308.355 194.245C308.355 191.623 310.679 189.499 313.548 189.499C316.417 189.499 318.741 191.623 318.741 194.245" fill="white" fill-opacity="0.3"/>
<path fill-rule="evenodd" clip-rule="evenodd" d="M344.702 194.245C344.702 196.866 342.378 198.99 339.509 198.99C336.64 198.99 334.316 196.866 334.316 194.245C334.316 191.623 336.64 189.499 339.509 189.499C342.378 189.499 344.702 191.623 344.702 194.245" fill="white" fill-opacity="0.3"/>
<path fill-rule="evenodd" clip-rule="evenodd" d="M372.397 194.245C372.397 196.866 370.073 198.99 367.204 198.99C364.335 198.99 362.012 196.866 362.012 194.245C362.012 191.623 364.335 189.499 367.204 189.499C370.073 189.499 372.397 191.623 372.397 194.245" fill="white" fill-opacity="0.3"/>
<path fill-rule="evenodd" clip-rule="evenodd" d="M78.1394 219.554C78.1394 222.176 75.8156 224.3 72.9466 224.3C70.0776 224.3 67.7539 222.176 67.7539 219.554C67.7539 216.932 70.0776 214.808 72.9466 214.808C75.8156 214.808 78.1394 216.932 78.1394 219.554" fill="white" fill-opacity="0.3"/>
<path fill-rule="evenodd" clip-rule="evenodd" d="M105.835 219.554C105.835 222.176 103.511 224.3 100.642 224.3C97.773 224.3 95.4492 222.176 95.4492 219.554C95.4492 216.932 97.773 214.808 100.642 214.808C103.511 214.808 105.835 216.932 105.835 219.554" fill="white" fill-opacity="0.3"/>
<path fill-rule="evenodd" clip-rule="evenodd" d="M131.788 219.554C131.788 222.176 129.464 224.3 126.595 224.3C123.726 224.3 121.402 222.176 121.402 219.554C121.402 216.932 123.726 214.808 126.595 214.808C129.464 214.808 131.788 216.932 131.788 219.554" fill="white" fill-opacity="0.3"/>
<path fill-rule="evenodd" clip-rule="evenodd" d="M157.768 219.554C157.768 222.176 155.445 224.3 152.576 224.3C149.707 224.3 147.383 222.176 147.383 219.554C147.383 216.932 149.707 214.808 152.576 214.808C155.445 214.808 157.768 216.932 157.768 219.554" fill="white" fill-opacity="0.3"/>
<path fill-rule="evenodd" clip-rule="evenodd" d="M185.456 219.554C185.456 222.176 183.132 224.3 180.263 224.3C177.394 224.3 175.07 222.176 175.07 219.554C175.07 216.932 177.394 214.808 180.263 214.808C183.132 214.808 185.456 216.932 185.456 219.554" fill="white" fill-opacity="0.3"/>
<path fill-rule="evenodd" clip-rule="evenodd" d="M211.425 219.554C211.425 222.176 209.101 224.3 206.232 224.3C203.363 224.3 201.039 222.176 201.039 219.554C201.039 216.932 203.363 214.808 206.232 214.808C209.101 214.808 211.425 216.932 211.425 219.554" fill="white" fill-opacity="0.3"/>
<path fill-rule="evenodd" clip-rule="evenodd" d="M239.116 219.554C239.116 222.176 236.792 224.3 233.923 224.3C231.054 224.3 228.73 222.176 228.73 219.554C228.73 216.932 231.054 214.808 233.923 214.808C236.792 214.808 239.116 216.932 239.116 219.554" fill="white" fill-opacity="0.3"/>
<path fill-rule="evenodd" clip-rule="evenodd" d="M265.081 219.554C265.081 222.176 262.757 224.3 259.888 224.3C257.019 224.3 254.695 222.176 254.695 219.554C254.695 216.932 257.019 214.808 259.888 214.808C262.757 214.808 265.081 216.932 265.081 219.554" fill="white" fill-opacity="0.3"/>
<path fill-rule="evenodd" clip-rule="evenodd" d="M292.772 219.554C292.772 222.176 290.448 224.3 287.579 224.3C284.71 224.3 282.387 222.176 282.387 219.554C282.387 216.932 284.71 214.808 287.579 214.808C290.448 214.808 292.772 216.932 292.772 219.554" fill="white" fill-opacity="0.3"/>
<path fill-rule="evenodd" clip-rule="evenodd" d="M318.741 219.554C318.741 222.176 316.417 224.3 313.548 224.3C310.679 224.3 308.355 222.176 308.355 219.554C308.355 216.932 310.679 214.808 313.548 214.808C316.417 214.808 318.741 216.932 318.741 219.554" fill="white" fill-opacity="0.3"/>
<path fill-rule="evenodd" clip-rule="evenodd" d="M344.702 219.554C344.702 222.176 342.378 224.3 339.509 224.3C336.64 224.3 334.316 222.176 334.316 219.554C334.316 216.932 336.64 214.808 339.509 214.808C342.378 214.808 344.702 216.932 344.702 219.554" fill="white" fill-opacity="0.3"/>
<path fill-rule="evenodd" clip-rule="evenodd" d="M372.397 219.554C372.397 222.176 370.073 224.3 367.204 224.3C364.335 224.3 362.012 222.176 362.012 219.554C362.012 216.932 364.335 214.808 367.204 214.808C370.073 214.808 372.397 216.932 372.397 219.554" fill="white" fill-opacity="0.3"/>
<path fill-rule="evenodd" clip-rule="evenodd" d="M78.1394 243.281C78.1394 245.904 75.8156 248.027 72.9466 248.027C70.0776 248.027 67.7539 245.904 67.7539 243.281C67.7539 240.659 70.0776 238.535 72.9466 238.535C75.8156 238.535 78.1394 240.659 78.1394 243.281" fill="white" fill-opacity="0.3"/>
<path fill-rule="evenodd" clip-rule="evenodd" d="M105.835 243.281C105.835 245.904 103.511 248.027 100.642 248.027C97.773 248.027 95.4492 245.904 95.4492 243.281C95.4492 240.659 97.773 238.535 100.642 238.535C103.511 238.535 105.835 240.659 105.835 243.281" fill="white" fill-opacity="0.3"/>
<path fill-rule="evenodd" clip-rule="evenodd" d="M131.788 243.281C131.788 245.904 129.464 248.027 126.595 248.027C123.726 248.027 121.402 245.904 121.402 243.281C121.402 240.659 123.726 238.535 126.595 238.535C129.464 238.535 131.788 240.659 131.788 243.281" fill="white" fill-opacity="0.3"/>
<path fill-rule="evenodd" clip-rule="evenodd" d="M157.768 243.281C157.768 245.904 155.445 248.027 152.576 248.027C149.707 248.027 147.383 245.904 147.383 243.281C147.383 240.659 149.707 238.535 152.576 238.535C155.445 238.535 157.768 240.659 157.768 243.281" fill="white" fill-opacity="0.3"/>
<path fill-rule="evenodd" clip-rule="evenodd" d="M185.456 243.281C185.456 245.904 183.132 248.027 180.263 248.027C177.394 248.027 175.07 245.904 175.07 243.281C175.07 240.659 177.394 238.535 180.263 238.535C183.132 238.535 185.456 240.659 185.456 243.281" fill="white" fill-opacity="0.3"/>
<path fill-rule="evenodd" clip-rule="evenodd" d="M211.425 243.281C211.425 245.904 209.101 248.027 206.232 248.027C203.363 248.027 201.039 245.904 201.039 243.281C201.039 240.659 203.363 238.535 206.232 238.535C209.101 238.535 211.425 240.659 211.425 243.281" fill="white" fill-opacity="0.3"/>
<path fill-rule="evenodd" clip-rule="evenodd" d="M239.116 243.281C239.116 245.904 236.792 248.027 233.923 248.027C231.054 248.027 228.73 245.904 228.73 243.281C228.73 240.659 231.054 238.535 233.923 238.535C236.792 238.535 239.116 240.659 239.116 243.281" fill="white" fill-opacity="0.3"/>
<path fill-rule="evenodd" clip-rule="evenodd" d="M265.081 243.281C265.081 245.904 262.757 248.027 259.888 248.027C257.019 248.027 254.695 245.904 254.695 243.281C254.695 240.659 257.019 238.535 259.888 238.535C262.757 238.535 265.081 240.659 265.081 243.281" fill="white" fill-opacity="0.3"/>
<path fill-rule="evenodd" clip-rule="evenodd" d="M292.772 243.281C292.772 245.904 290.448 248.027 287.579 248.027C284.71 248.027 282.387 245.904 282.387 243.281C282.387 240.659 284.71 238.535 287.579 238.535C290.448 238.535 292.772 240.659 292.772 243.281" fill="white" fill-opacity="0.3"/>
<path fill-rule="evenodd" clip-rule="evenodd" d="M318.741 243.281C318.741 245.904 316.417 248.027 313.548 248.027C310.679 248.027 308.355 245.904 308.355 243.281C308.355 240.659 310.679 238.535 313.548 238.535C316.417 238.535 318.741 240.659 318.741 243.281" fill="white" fill-opacity="0.3"/>
<path fill-rule="evenodd" clip-rule="evenodd" d="M344.702 243.281C344.702 245.904 342.378 248.027 339.509 248.027C336.64 248.027 334.316 245.904 334.316 243.281C334.316 240.659 336.64 238.535 339.509 238.535C342.378 238.535 344.702 240.659 344.702 243.281" fill="white" fill-opacity="0.3"/>
<path fill-rule="evenodd" clip-rule="evenodd" d="M372.397 243.281C372.397 245.904 370.073 248.027 367.204 248.027C364.335 248.027 362.012 245.904 362.012 243.281C362.012 240.659 364.335 238.535 367.204 238.535C370.073 238.535 372.397 240.659 372.397 243.281" fill="white" fill-opacity="0.3"/>
<path fill-rule="evenodd" clip-rule="evenodd" d="M78.1394 268.59C78.1394 271.213 75.8156 273.337 72.9466 273.337C70.0776 273.337 67.7539 271.213 67.7539 268.59C67.7539 265.968 70.0776 263.844 72.9466 263.844C75.8156 263.844 78.1394 265.968 78.1394 268.59" fill="white" fill-opacity="0.3"/>
<path fill-rule="evenodd" clip-rule="evenodd" d="M105.835 268.59C105.835 271.213 103.511 273.337 100.642 273.337C97.773 273.337 95.4492 271.213 95.4492 268.59C95.4492 265.968 97.773 263.844 100.642 263.844C103.511 263.844 105.835 265.968 105.835 268.59" fill="white" fill-opacity="0.3"/>
<path fill-rule="evenodd" clip-rule="evenodd" d="M131.788 268.59C131.788 271.213 129.464 273.337 126.595 273.337C123.726 273.337 121.402 271.213 121.402 268.59C121.402 265.968 123.726 263.844 126.595 263.844C129.464 263.844 131.788 265.968 131.788 268.59" fill="white" fill-opacity="0.3"/>
<path fill-rule="evenodd" clip-rule="evenodd" d="M157.768 268.59C157.768 271.213 155.445 273.337 152.576 273.337C149.707 273.337 147.383 271.213 147.383 268.59C147.383 265.968 149.707 263.844 152.576 263.844C155.445 263.844 157.768 265.968 157.768 268.59" fill="white" fill-opacity="0.3"/>
<path fill-rule="evenodd" clip-rule="evenodd" d="M185.456 268.59C185.456 271.213 183.132 273.337 180.263 273.337C177.394 273.337 175.07 271.213 175.07 268.59C175.07 265.968 177.394 263.844 180.263 263.844C183.132 263.844 185.456 265.968 185.456 268.59" fill="white" fill-opacity="0.3"/>
<path fill-rule="evenodd" clip-rule="evenodd" d="M211.425 268.59C211.425 271.213 209.101 273.337 206.232 273.337C203.363 273.337 201.039 271.213 201.039 268.59C201.039 265.968 203.363 263.844 206.232 263.844C209.101 263.844 211.425 265.968 211.425 268.59" fill="white" fill-opacity="0.3"/>
<path fill-rule="evenodd" clip-rule="evenodd" d="M239.116 268.59C239.116 271.213 236.792 273.337 233.923 273.337C231.054 273.337 228.73 271.213 228.73 268.59C228.73 265.968 231.054 263.844 233.923 263.844C236.792 263.844 239.116 265.968 239.116 268.59" fill="white" fill-opacity="0.3"/>
<path fill-rule="evenodd" clip-rule="evenodd" d="M265.081 268.59C265.081 271.213 262.757 273.337 259.888 273.337C257.019 273.337 254.695 271.213 254.695 268.59C254.695 265.968 257.019 263.844 259.888 263.844C262.757 263.844 265.081 265.968 265.081 268.59" fill="white" fill-opacity="0.3"/>
<path fill-rule="evenodd" clip-rule="evenodd" d="M292.772 268.59C292.772 271.213 290.448 273.337 287.579 273.337C284.71 273.337 282.387 271.213 282.387 268.59C282.387 265.968 284.71 263.844 287.579 263.844C290.448 263.844 292.772 265.968 292.772 268.59" fill="white" fill-opacity="0.3"/>
<path fill-rule="evenodd" clip-rule="evenodd" d="M318.741 268.59C318.741 271.213 316.417 273.337 313.548 273.337C310.679 273.337 308.355 271.213 308.355 268.59C308.355 265.968 310.679 263.844 313.548 263.844C316.417 263.844 318.741 265.968 318.741 268.59" fill="white" fill-opacity="0.3"/>
<path fill-rule="evenodd" clip-rule="evenodd" d="M344.702 268.59C344.702 271.213 342.378 273.337 339.509 273.337C336.64 273.337 334.316 271.213 334.316 268.59C334.316 265.968 336.64 263.844 339.509 263.844C342.378 263.844 344.702 265.968 344.702 268.59" fill="white" fill-opacity="0.3"/>
<path fill-rule="evenodd" clip-rule="evenodd" d="M372.397 268.59C372.397 271.213 370.073 273.337 367.204 273.337C364.335 273.337 362.012 271.213 362.012 268.59C362.012 265.968 364.335 263.844 367.204 263.844C370.073 263.844 372.397 265.968 372.397 268.59" fill="white" fill-opacity="0.3"/>
<path fill-rule="evenodd" clip-rule="evenodd" d="M78.1394 292.318C78.1394 294.94 75.8156 297.064 72.9466 297.064C70.0776 297.064 67.7539 294.94 67.7539 292.318C67.7539 289.696 70.0776 287.572 72.9466 287.572C75.8156 287.572 78.1394 289.696 78.1394 292.318" fill="white" fill-opacity="0.3"/>
<path fill-rule="evenodd" clip-rule="evenodd" d="M105.835 292.318C105.835 294.94 103.511 297.064 100.642 297.064C97.773 297.064 95.4492 294.94 95.4492 292.318C95.4492 289.696 97.773 287.572 100.642 287.572C103.511 287.572 105.835 289.696 105.835 292.318" fill="white" fill-opacity="0.3"/>
<path fill-rule="evenodd" clip-rule="evenodd" d="M131.788 292.318C131.788 294.94 129.464 297.064 126.595 297.064C123.726 297.064 121.402 294.94 121.402 292.318C121.402 289.696 123.726 287.572 126.595 287.572C129.464 287.572 131.788 289.696 131.788 292.318" fill="white" fill-opacity="0.3"/>
<path fill-rule="evenodd" clip-rule="evenodd" d="M157.768 292.318C157.768 294.94 155.445 297.064 152.576 297.064C149.707 297.064 147.383 294.94 147.383 292.318C147.383 289.696 149.707 287.572 152.576 287.572C155.445 287.572 157.768 289.696 157.768 292.318" fill="white" fill-opacity="0.3"/>
<path fill-rule="evenodd" clip-rule="evenodd" d="M185.456 292.318C185.456 294.94 183.132 297.064 180.263 297.064C177.394 297.064 175.07 294.94 175.07 292.318C175.07 289.696 177.394 287.572 180.263 287.572C183.132 287.572 185.456 289.696 185.456 292.318" fill="white" fill-opacity="0.3"/>
<path fill-rule="evenodd" clip-rule="evenodd" d="M211.425 292.318C211.425 294.94 209.101 297.064 206.232 297.064C203.363 297.064 201.039 294.94 201.039 292.318C201.039 289.696 203.363 287.572 206.232 287.572C209.101 287.572 211.425 289.696 211.425 292.318" fill="white" fill-opacity="0.3"/>
<path fill-rule="evenodd" clip-rule="evenodd" d="M239.116 292.318C239.116 294.94 236.792 297.064 233.923 297.064C231.054 297.064 228.73 294.94 228.73 292.318C228.73 289.696 231.054 287.572 233.923 287.572C236.792 287.572 239.116 289.696 239.116 292.318" fill="white" fill-opacity="0.3"/>
<path fill-rule="evenodd" clip-rule="evenodd" d="M265.081 292.318C265.081 294.94 262.757 297.064 259.888 297.064C257.019 297.064 254.695 294.94 254.695 292.318C254.695 289.696 257.019 287.572 259.888 287.572C262.757 287.572 265.081 289.696 265.081 292.318" fill="white" fill-opacity="0.3"/>
<path fill-rule="evenodd" clip-rule="evenodd" d="M292.772 292.318C292.772 294.94 290.448 297.064 287.579 297.064C284.71 297.064 282.387 294.94 282.387 292.318C282.387 289.696 284.71 287.572 287.579 287.572C290.448 287.572 292.772 289.696 292.772 292.318" fill="white" fill-opacity="0.3"/>
<path fill-rule="evenodd" clip-rule="evenodd" d="M318.741 292.318C318.741 294.94 316.417 297.064 313.548 297.064C310.679 297.064 308.355 294.94 308.355 292.318C308.355 289.696 310.679 287.572 313.548 287.572C316.417 287.572 318.741 289.696 318.741 292.318" fill="white" fill-opacity="0.3"/>
<path fill-rule="evenodd" clip-rule="evenodd" d="M344.702 292.318C344.702 294.94 342.378 297.064 339.509 297.064C336.64 297.064 334.316 294.94 334.316 292.318C334.316 289.696 336.64 287.572 339.509 287.572C342.378 287.572 344.702 289.696 344.702 292.318" fill="white" fill-opacity="0.3"/>
<path fill-rule="evenodd" clip-rule="evenodd" d="M372.397 292.318C372.397 294.94 370.073 297.064 367.204 297.064C364.335 297.064 362.012 294.94 362.012 292.318C362.012 289.696 364.335 287.572 367.204 287.572C370.073 287.572 372.397 289.696 372.397 292.318" fill="white" fill-opacity="0.3"/>
<path fill-rule="evenodd" clip-rule="evenodd" d="M78.1394 316.045C78.1394 318.667 75.8156 320.79 72.9466 320.79C70.0776 320.79 67.7539 318.667 67.7539 316.045C67.7539 313.423 70.0776 311.299 72.9466 311.299C75.8156 311.299 78.1394 313.423 78.1394 316.045" fill="white" fill-opacity="0.3"/>
<path fill-rule="evenodd" clip-rule="evenodd" d="M105.835 316.045C105.835 318.667 103.511 320.79 100.642 320.79C97.773 320.79 95.4492 318.667 95.4492 316.045C95.4492 313.423 97.773 311.299 100.642 311.299C103.511 311.299 105.835 313.423 105.835 316.045" fill="white" fill-opacity="0.3"/>
<path fill-rule="evenodd" clip-rule="evenodd" d="M131.788 316.045C131.788 318.667 129.464 320.79 126.595 320.79C123.726 320.79 121.402 318.667 121.402 316.045C121.402 313.423 123.726 311.299 126.595 311.299C129.464 311.299 131.788 313.423 131.788 316.045" fill="white" fill-opacity="0.3"/>
<path fill-rule="evenodd" clip-rule="evenodd" d="M157.768 316.045C157.768 318.667 155.445 320.79 152.576 320.79C149.707 320.79 147.383 318.667 147.383 316.045C147.383 313.423 149.707 311.299 152.576 311.299C155.445 311.299 157.768 313.423 157.768 316.045" fill="white" fill-opacity="0.3"/>
<path fill-rule="evenodd" clip-rule="evenodd" d="M185.456 316.045C185.456 318.667 183.132 320.79 180.263 320.79C177.394 320.79 175.07 318.667 175.07 316.045C175.07 313.423 177.394 311.299 180.263 311.299C183.132 311.299 185.456 313.423 185.456 316.045" fill="white" fill-opacity="0.3"/>
<path fill-rule="evenodd" clip-rule="evenodd" d="M211.425 316.045C211.425 318.667 209.101 320.79 206.232 320.79C203.363 320.79 201.039 318.667 201.039 316.045C201.039 313.423 203.363 311.299 206.232 311.299C209.101 311.299 211.425 313.423 211.425 316.045" fill="white" fill-opacity="0.3"/>
<path fill-rule="evenodd" clip-rule="evenodd" d="M239.116 316.045C239.116 318.667 236.792 320.79 233.923 320.79C231.054 320.79 228.73 318.667 228.73 316.045C228.73 313.423 231.054 311.299 233.923 311.299C236.792 311.299 239.116 313.423 239.116 316.045" fill="white" fill-opacity="0.3"/>
<path fill-rule="evenodd" clip-rule="evenodd" d="M265.081 316.045C265.081 318.667 262.757 320.79 259.888 320.79C257.019 320.79 254.695 318.667 254.695 316.045C254.695 313.423 257.019 311.299 259.888 311.299C262.757 311.299 265.081 313.423 265.081 316.045" fill="white" fill-opacity="0.3"/>
<path fill-rule="evenodd" clip-rule="evenodd" d="M292.772 316.045C292.772 318.667 290.448 320.79 287.579 320.79C284.71 320.79 282.387 318.667 282.387 316.045C282.387 313.423 284.71 311.299 287.579 311.299C290.448 311.299 292.772 313.423 292.772 316.045" fill="white" fill-opacity="0.3"/>
<path fill-rule="evenodd" clip-rule="evenodd" d="M318.741 316.045C318.741 318.667 316.417 320.79 313.548 320.79C310.679 320.79 308.355 318.667 308.355 316.045C308.355 313.423 310.679 311.299 313.548 311.299C316.417 311.299 318.741 313.423 318.741 316.045" fill="white" fill-opacity="0.3"/>
<path fill-rule="evenodd" clip-rule="evenodd" d="M344.702 316.045C344.702 318.667 342.378 320.79 339.509 320.79C336.64 320.79 334.316 318.667 334.316 316.045C334.316 313.423 336.64 311.299 339.509 311.299C342.378 311.299 344.702 313.423 344.702 316.045" fill="white" fill-opacity="0.3"/>
<path fill-rule="evenodd" clip-rule="evenodd" d="M372.397 316.045C372.397 318.667 370.073 320.79 367.204 320.79C364.335 320.79 362.012 318.667 362.012 316.045C362.012 313.423 364.335 311.299 367.204 311.299C370.073 311.299 372.397 313.423 372.397 316.045" fill="white" fill-opacity="0.3"/>
<path fill-rule="evenodd" clip-rule="evenodd" d="M78.1394 341.354C78.1394 343.977 75.8156 346.1 72.9466 346.1C70.0776 346.1 67.7539 343.977 67.7539 341.354C67.7539 338.732 70.0776 336.608 72.9466 336.608C75.8156 336.608 78.1394 338.732 78.1394 341.354" fill="white" fill-opacity="0.3"/>
<path fill-rule="evenodd" clip-rule="evenodd" d="M105.835 341.354C105.835 343.977 103.511 346.1 100.642 346.1C97.773 346.1 95.4492 343.977 95.4492 341.354C95.4492 338.732 97.773 336.608 100.642 336.608C103.511 336.608 105.835 338.732 105.835 341.354" fill="white" fill-opacity="0.3"/>
<path fill-rule="evenodd" clip-rule="evenodd" d="M131.788 341.354C131.788 343.977 129.464 346.1 126.595 346.1C123.726 346.1 121.402 343.977 121.402 341.354C121.402 338.732 123.726 336.608 126.595 336.608C129.464 336.608 131.788 338.732 131.788 341.354" fill="white" fill-opacity="0.3"/>
<path fill-rule="evenodd" clip-rule="evenodd" d="M157.768 341.354C157.768 343.977 155.445 346.1 152.576 346.1C149.707 346.1 147.383 343.977 147.383 341.354C147.383 338.732 149.707 336.608 152.576 336.608C155.445 336.608 157.768 338.732 157.768 341.354" fill="white" fill-opacity="0.3"/>
<path fill-rule="evenodd" clip-rule="evenodd" d="M185.456 341.354C185.456 343.977 183.132 346.1 180.263 346.1C177.394 346.1 175.07 343.977 175.07 341.354C175.07 338.732 177.394 336.608 180.263 336.608C183.132 336.608 185.456 338.732 185.456 341.354" fill="white" fill-opacity="0.3"/>
<path fill-rule="evenodd" clip-rule="evenodd" d="M211.425 341.354C211.425 343.977 209.101 346.1 206.232 346.1C203.363 346.1 201.039 343.977 201.039 341.354C201.039 338.732 203.363 336.608 206.232 336.608C209.101 336.608 211.425 338.732 211.425 341.354" fill="white" fill-opacity="0.3"/>
<path fill-rule="evenodd" clip-rule="evenodd" d="M239.116 341.354C239.116 343.977 236.792 346.1 233.923 346.1C231.054 346.1 228.73 343.977 228.73 341.354C228.73 338.732 231.054 336.608 233.923 336.608C236.792 336.608 239.116 338.732 239.116 341.354" fill="white" fill-opacity="0.3"/>
<path fill-rule="evenodd" clip-rule="evenodd" d="M265.081 341.354C265.081 343.977 262.757 346.1 259.888 346.1C257.019 346.1 254.695 343.977 254.695 341.354C254.695 338.732 257.019 336.608 259.888 336.608C262.757 336.608 265.081 338.732 265.081 341.354" fill="white" fill-opacity="0.3"/>
<path fill-rule="evenodd" clip-rule="evenodd" d="M292.772 341.354C292.772 343.977 290.448 346.1 287.579 346.1C284.71 346.1 282.387 343.977 282.387 341.354C282.387 338.732 284.71 336.608 287.579 336.608C290.448 336.608 292.772 338.732 292.772 341.354" fill="white" fill-opacity="0.3"/>
<path fill-rule="evenodd" clip-rule="evenodd" d="M318.741 341.354C318.741 343.977 316.417 346.1 313.548 346.1C310.679 346.1 308.355 343.977 308.355 341.354C308.355 338.732 310.679 336.608 313.548 336.608C316.417 336.608 318.741 338.732 318.741 341.354" fill="white" fill-opacity="0.3"/>
<path fill-rule="evenodd" clip-rule="evenodd" d="M344.702 341.354C344.702 343.977 342.378 346.1 339.509 346.1C336.64 346.1 334.316 343.977 334.316 341.354C334.316 338.732 336.64 336.608 339.509 336.608C342.378 336.608 344.702 338.732 344.702 341.354" fill="white" fill-opacity="0.3"/>
<path fill-rule="evenodd" clip-rule="evenodd" d="M372.397 341.354C372.397 343.977 370.073 346.1 367.204 346.1C364.335 346.1 362.012 343.977 362.012 341.354C362.012 338.732 364.335 336.608 367.204 336.608C370.073 336.608 372.397 338.732 372.397 341.354" fill="white" fill-opacity="0.3"/>
<path fill-rule="evenodd" clip-rule="evenodd" d="M78.1394 365.082C78.1394 367.704 75.8156 369.828 72.9466 369.828C70.0776 369.828 67.7539 367.704 67.7539 365.082C67.7539 362.46 70.0776 360.336 72.9466 360.336C75.8156 360.336 78.1394 362.46 78.1394 365.082" fill="white" fill-opacity="0.3"/>
<path fill-rule="evenodd" clip-rule="evenodd" d="M105.835 365.082C105.835 367.704 103.511 369.828 100.642 369.828C97.773 369.828 95.4492 367.704 95.4492 365.082C95.4492 362.46 97.773 360.336 100.642 360.336C103.511 360.336 105.835 362.46 105.835 365.082" fill="white" fill-opacity="0.3"/>
<path fill-rule="evenodd" clip-rule="evenodd" d="M131.788 365.082C131.788 367.704 129.464 369.828 126.595 369.828C123.726 369.828 121.402 367.704 121.402 365.082C121.402 362.46 123.726 360.336 126.595 360.336C129.464 360.336 131.788 362.46 131.788 365.082" fill="white" fill-opacity="0.3"/>
<path fill-rule="evenodd" clip-rule="evenodd" d="M157.768 365.082C157.768 367.704 155.445 369.828 152.576 369.828C149.707 369.828 147.383 367.704 147.383 365.082C147.383 362.46 149.707 360.336 152.576 360.336C155.445 360.336 157.768 362.46 157.768 365.082" fill="white" fill-opacity="0.3"/>
<path fill-rule="evenodd" clip-rule="evenodd" d="M185.456 365.082C185.456 367.704 183.132 369.828 180.263 369.828C177.394 369.828 175.07 367.704 175.07 365.082C175.07 362.46 177.394 360.336 180.263 360.336C183.132 360.336 185.456 362.46 185.456 365.082" fill="white" fill-opacity="0.3"/>
<path fill-rule="evenodd" clip-rule="evenodd" d="M211.425 365.082C211.425 367.704 209.101 369.828 206.232 369.828C203.363 369.828 201.039 367.704 201.039 365.082C201.039 362.46 203.363 360.336 206.232 360.336C209.101 360.336 211.425 362.46 211.425 365.082" fill="white" fill-opacity="0.3"/>
<path fill-rule="evenodd" clip-rule="evenodd" d="M239.116 365.082C239.116 367.704 236.792 369.828 233.923 369.828C231.054 369.828 228.73 367.704 228.73 365.082C228.73 362.46 231.054 360.336 233.923 360.336C236.792 360.336 239.116 362.46 239.116 365.082" fill="white" fill-opacity="0.3"/>
<path fill-rule="evenodd" clip-rule="evenodd" d="M265.081 365.082C265.081 367.704 262.757 369.828 259.888 369.828C257.019 369.828 254.695 367.704 254.695 365.082C254.695 362.46 257.019 360.336 259.888 360.336C262.757 360.336 265.081 362.46 265.081 365.082" fill="white" fill-opacity="0.3"/>
<path fill-rule="evenodd" clip-rule="evenodd" d="M292.772 365.082C292.772 367.704 290.448 369.828 287.579 369.828C284.71 369.828 282.387 367.704 282.387 365.082C282.387 362.46 284.71 360.336 287.579 360.336C290.448 360.336 292.772 362.46 292.772 365.082" fill="white" fill-opacity="0.3"/>
<path fill-rule="evenodd" clip-rule="evenodd" d="M318.741 365.082C318.741 367.704 316.417 369.828 313.548 369.828C310.679 369.828 308.355 367.704 308.355 365.082C308.355 362.46 310.679 360.336 313.548 360.336C316.417 360.336 318.741 362.46 318.741 365.082" fill="white" fill-opacity="0.3"/>
<path fill-rule="evenodd" clip-rule="evenodd" d="M344.702 365.082C344.702 367.704 342.378 369.828 339.509 369.828C336.64 369.828 334.316 367.704 334.316 365.082C334.316 362.46 336.64 360.336 339.509 360.336C342.378 360.336 344.702 362.46 344.702 365.082" fill="white" fill-opacity="0.3"/>
<path fill-rule="evenodd" clip-rule="evenodd" d="M372.397 365.082C372.397 367.704 370.073 369.828 367.204 369.828C364.335 369.828 362.012 367.704 362.012 365.082C362.012 362.46 364.335 360.336 367.204 360.336C370.073 360.336 372.397 362.46 372.397 365.082" fill="white" fill-opacity="0.3"/>
<path fill-rule="evenodd" clip-rule="evenodd" d="M78.1394 390.39C78.1394 393.012 75.8156 395.136 72.9466 395.136C70.0776 395.136 67.7539 393.012 67.7539 390.39C67.7539 387.768 70.0776 385.645 72.9466 385.645C75.8156 385.645 78.1394 387.768 78.1394 390.39" fill="white" fill-opacity="0.3"/>
<path fill-rule="evenodd" clip-rule="evenodd" d="M105.835 390.39C105.835 393.012 103.511 395.136 100.642 395.136C97.773 395.136 95.4492 393.012 95.4492 390.39C95.4492 387.768 97.773 385.645 100.642 385.645C103.511 385.645 105.835 387.768 105.835 390.39" fill="white" fill-opacity="0.3"/>
<path fill-rule="evenodd" clip-rule="evenodd" d="M131.788 390.39C131.788 393.012 129.464 395.136 126.595 395.136C123.726 395.136 121.402 393.012 121.402 390.39C121.402 387.768 123.726 385.645 126.595 385.645C129.464 385.645 131.788 387.768 131.788 390.39" fill="white" fill-opacity="0.3"/>
<path fill-rule="evenodd" clip-rule="evenodd" d="M157.768 390.39C157.768 393.012 155.445 395.136 152.576 395.136C149.707 395.136 147.383 393.012 147.383 390.39C147.383 387.768 149.707 385.645 152.576 385.645C155.445 385.645 157.768 387.768 157.768 390.39" fill="white" fill-opacity="0.3"/>
<path fill-rule="evenodd" clip-rule="evenodd" d="M185.456 390.39C185.456 393.012 183.132 395.136 180.263 395.136C177.394 395.136 175.07 393.012 175.07 390.39C175.07 387.768 177.394 385.645 180.263 385.645C183.132 385.645 185.456 387.768 185.456 390.39" fill="white" fill-opacity="0.3"/>
<path fill-rule="evenodd" clip-rule="evenodd" d="M211.425 390.39C211.425 393.012 209.101 395.136 206.232 395.136C203.363 395.136 201.039 393.012 201.039 390.39C201.039 387.768 203.363 385.645 206.232 385.645C209.101 385.645 211.425 387.768 211.425 390.39" fill="white" fill-opacity="0.3"/>
<path fill-rule="evenodd" clip-rule="evenodd" d="M239.116 390.39C239.116 393.012 236.792 395.136 233.923 395.136C231.054 395.136 228.73 393.012 228.73 390.39C228.73 387.768 231.054 385.645 233.923 385.645C236.792 385.645 239.116 387.768 239.116 390.39" fill="white" fill-opacity="0.3"/>
<path fill-rule="evenodd" clip-rule="evenodd" d="M265.081 390.39C265.081 393.012 262.757 395.136 259.888 395.136C257.019 395.136 254.695 393.012 254.695 390.39C254.695 387.768 257.019 385.645 259.888 385.645C262.757 385.645 265.081 387.768 265.081 390.39" fill="white" fill-opacity="0.3"/>
<path fill-rule="evenodd" clip-rule="evenodd" d="M292.772 390.39C292.772 393.012 290.448 395.136 287.579 395.136C284.71 395.136 282.387 393.012 282.387 390.39C282.387 387.768 284.71 385.645 287.579 385.645C290.448 385.645 292.772 387.768 292.772 390.39" fill="white" fill-opacity="0.3"/>
<path fill-rule="evenodd" clip-rule="evenodd" d="M318.741 390.39C318.741 393.012 316.417 395.136 313.548 395.136C310.679 395.136 308.355 393.012 308.355 390.39C308.355 387.768 310.679 385.645 313.548 385.645C316.417 385.645 318.741 387.768 318.741 390.39" fill="white" fill-opacity="0.3"/>
<path fill-rule="evenodd" clip-rule="evenodd" d="M344.702 390.39C344.702 393.012 342.378 395.136 339.509 395.136C336.64 395.136 334.316 393.012 334.316 390.39C334.316 387.768 336.64 385.645 339.509 385.645C342.378 385.645 344.702 387.768 344.702 390.39" fill="white" fill-opacity="0.3"/>
<path fill-rule="evenodd" clip-rule="evenodd" d="M372.397 390.39C372.397 393.012 370.073 395.136 367.204 395.136C364.335 395.136 362.012 393.012 362.012 390.39C362.012 387.768 364.335 385.645 367.204 385.645C370.073 385.645 372.397 387.768 372.397 390.39" fill="white" fill-opacity="0.3"/>
<path fill-rule="evenodd" clip-rule="evenodd" d="M78.1394 414.117C78.1394 416.739 75.8156 418.863 72.9466 418.863C70.0776 418.863 67.7539 416.739 67.7539 414.117C67.7539 411.496 70.0776 409.372 72.9466 409.372C75.8156 409.372 78.1394 411.496 78.1394 414.117" fill="white" fill-opacity="0.3"/>
<path fill-rule="evenodd" clip-rule="evenodd" d="M105.835 414.117C105.835 416.739 103.511 418.863 100.642 418.863C97.773 418.863 95.4492 416.739 95.4492 414.117C95.4492 411.496 97.773 409.372 100.642 409.372C103.511 409.372 105.835 411.496 105.835 414.117" fill="white" fill-opacity="0.3"/>
<path fill-rule="evenodd" clip-rule="evenodd" d="M131.788 414.117C131.788 416.739 129.464 418.863 126.595 418.863C123.726 418.863 121.402 416.739 121.402 414.117C121.402 411.496 123.726 409.372 126.595 409.372C129.464 409.372 131.788 411.496 131.788 414.117" fill="white" fill-opacity="0.3"/>
<path fill-rule="evenodd" clip-rule="evenodd" d="M157.768 414.117C157.768 416.739 155.445 418.863 152.576 418.863C149.707 418.863 147.383 416.739 147.383 414.117C147.383 411.496 149.707 409.372 152.576 409.372C155.445 409.372 157.768 411.496 157.768 414.117" fill="white" fill-opacity="0.3"/>
<path fill-rule="evenodd" clip-rule="evenodd" d="M185.456 414.117C185.456 416.739 183.132 418.863 180.263 418.863C177.394 418.863 175.07 416.739 175.07 414.117C175.07 411.496 177.394 409.372 180.263 409.372C183.132 409.372 185.456 411.496 185.456 414.117" fill="white" fill-opacity="0.3"/>
<path fill-rule="evenodd" clip-rule="evenodd" d="M211.425 414.117C211.425 416.739 209.101 418.863 206.232 418.863C203.363 418.863 201.039 416.739 201.039 414.117C201.039 411.496 203.363 409.372 206.232 409.372C209.101 409.372 211.425 411.496 211.425 414.117" fill="white" fill-opacity="0.3"/>
<path fill-rule="evenodd" clip-rule="evenodd" d="M239.116 414.117C239.116 416.739 236.792 418.863 233.923 418.863C231.054 418.863 228.73 416.739 228.73 414.117C228.73 411.496 231.054 409.372 233.923 409.372C236.792 409.372 239.116 411.496 239.116 414.117" fill="white" fill-opacity="0.3"/>
<path fill-rule="evenodd" clip-rule="evenodd" d="M265.081 414.117C265.081 416.739 262.757 418.863 259.888 418.863C257.019 418.863 254.695 416.739 254.695 414.117C254.695 411.496 257.019 409.372 259.888 409.372C262.757 409.372 265.081 411.496 265.081 414.117" fill="white" fill-opacity="0.3"/>
<path fill-rule="evenodd" clip-rule="evenodd" d="M292.772 414.117C292.772 416.739 290.448 418.863 287.579 418.863C284.71 418.863 282.387 416.739 282.387 414.117C282.387 411.496 284.71 409.372 287.579 409.372C290.448 409.372 292.772 411.496 292.772 414.117" fill="white" fill-opacity="0.3"/>
<path fill-rule="evenodd" clip-rule="evenodd" d="M318.741 414.117C318.741 416.739 316.417 418.863 313.548 418.863C310.679 418.863 308.355 416.739 308.355 414.117C308.355 411.496 310.679 409.372 313.548 409.372C316.417 409.372 318.741 411.496 318.741 414.117" fill="white" fill-opacity="0.3"/>
<path fill-rule="evenodd" clip-rule="evenodd" d="M344.702 414.117C344.702 416.739 342.378 418.863 339.509 418.863C336.64 418.863 334.316 416.739 334.316 414.117C334.316 411.496 336.64 409.372 339.509 409.372C342.378 409.372 344.702 411.496 344.702 414.117" fill="white" fill-opacity="0.3"/>
<path fill-rule="evenodd" clip-rule="evenodd" d="M372.397 414.117C372.397 416.739 370.073 418.863 367.204 418.863C364.335 418.863 362.012 416.739 362.012 414.117C362.012 411.496 364.335 409.372 367.204 409.372C370.073 409.372 372.397 411.496 372.397 414.117" fill="white" fill-opacity="0.3"/>
<path fill-rule="evenodd" clip-rule="evenodd" d="M105.835 121.48C105.835 124.102 103.511 126.226 100.642 126.226C97.773 126.226 95.4492 124.102 95.4492 121.48C95.4492 118.859 97.773 116.735 100.642 116.735C103.511 116.735 105.835 118.859 105.835 121.48" fill="white" fill-opacity="0.3"/>
<path fill-rule="evenodd" clip-rule="evenodd" d="M131.788 121.48C131.788 124.102 129.464 126.226 126.595 126.226C123.726 126.226 121.402 124.102 121.402 121.48C121.402 118.859 123.726 116.735 126.595 116.735C129.464 116.735 131.788 118.859 131.788 121.48" fill="white" fill-opacity="0.3"/>
<path fill-rule="evenodd" clip-rule="evenodd" d="M157.768 121.48C157.768 124.102 155.445 126.226 152.576 126.226C149.707 126.226 147.383 124.102 147.383 121.48C147.383 118.859 149.707 116.735 152.576 116.735C155.445 116.735 157.768 118.859 157.768 121.48" fill="white" fill-opacity="0.3"/>
<path fill-rule="evenodd" clip-rule="evenodd" d="M185.456 121.48C185.456 124.102 183.132 126.226 180.263 126.226C177.394 126.226 175.07 124.102 175.07 121.48C175.07 118.859 177.394 116.735 180.263 116.735C183.132 116.735 185.456 118.859 185.456 121.48" fill="white" fill-opacity="0.3"/>
<path fill-rule="evenodd" clip-rule="evenodd" d="M211.425 121.48C211.425 124.102 209.101 126.226 206.232 126.226C203.363 126.226 201.039 124.102 201.039 121.48C201.039 118.859 203.363 116.735 206.232 116.735C209.101 116.735 211.425 118.859 211.425 121.48" fill="white" fill-opacity="0.3"/>
<path fill-rule="evenodd" clip-rule="evenodd" d="M239.116 121.48C239.116 124.102 236.792 126.226 233.923 126.226C231.054 126.226 228.73 124.102 228.73 121.48C228.73 118.859 231.054 116.735 233.923 116.735C236.792 116.735 239.116 118.859 239.116 121.48" fill="white" fill-opacity="0.3"/>
<path fill-rule="evenodd" clip-rule="evenodd" d="M265.081 121.48C265.081 124.102 262.757 126.226 259.888 126.226C257.019 126.226 254.695 124.102 254.695 121.48C254.695 118.859 257.019 116.735 259.888 116.735C262.757 116.735 265.081 118.859 265.081 121.48" fill="white" fill-opacity="0.3"/>
<path fill-rule="evenodd" clip-rule="evenodd" d="M292.772 121.48C292.772 124.102 290.448 126.226 287.579 126.226C284.71 126.226 282.387 124.102 282.387 121.48C282.387 118.859 284.71 116.735 287.579 116.735C290.448 116.735 292.772 118.859 292.772 121.48" fill="white" fill-opacity="0.3"/>
<path fill-rule="evenodd" clip-rule="evenodd" d="M318.741 121.48C318.741 124.102 316.417 126.226 313.548 126.226C310.679 126.226 308.355 124.102 308.355 121.48C308.355 118.859 310.679 116.735 313.548 116.735C316.417 116.735 318.741 118.859 318.741 121.48" fill="white" fill-opacity="0.3"/>
<path fill-rule="evenodd" clip-rule="evenodd" d="M344.702 121.48C344.702 124.102 342.378 126.226 339.509 126.226C336.64 126.226 334.316 124.102 334.316 121.48C334.316 118.859 336.64 116.735 339.509 116.735C342.378 116.735 344.702 118.859 344.702 121.48" fill="white" fill-opacity="0.3"/>
<path fill-rule="evenodd" clip-rule="evenodd" d="M372.397 121.48C372.397 124.102 370.073 126.226 367.204 126.226C364.335 126.226 362.012 124.102 362.012 121.48C362.012 118.859 364.335 116.735 367.204 116.735C370.073 116.735 372.397 118.859 372.397 121.48" fill="white" fill-opacity="0.3"/>
<path d="M431.984 288.774C431.984 288.774 444.161 237.171 485.235 231.497C485.235 231.497 493.226 230.516 495.888 239.315C498.55 248.114 482.659 248.179 472.838 251.716C463.015 255.256 440.117 270.263 431.984 288.774Z" fill="#D2E0FF"/>
<path d="M431.058 279.115C431.058 279.115 426.788 236.371 456.761 221.202C456.761 221.202 462.624 218.345 466.983 224.384C471.342 230.424 459.184 234.66 452.592 239.96C445.999 245.259 432.413 262.789 431.058 279.115Z" fill="#D2E0FF"/>
<path d="M477.162 381.638C477.162 381.638 480.561 360.961 496.533 364.249C496.533 364.249 506.88 367.762 511.434 373.891C511.434 373.891 490.623 377.282 491.491 381.115C492.358 384.947 514.408 375.666 514.408 375.666C514.408 375.666 529.678 390.618 531.564 397.972C531.564 397.972 508.471 393.632 510.258 397.132C512.044 400.634 535.866 406.267 535.866 406.267C535.866 406.267 546.029 423.588 536.108 430.552C526.186 437.516 518.94 434.697 517.257 432.195C515.573 429.693 509.409 411.962 507.284 413.25C505.159 414.537 505.807 427.784 510.279 433.685C510.279 433.685 489.515 432.91 486.945 422.951C484.375 412.992 489.255 407.853 487.555 401.729C485.855 395.603 482.673 391.83 482.147 395.392C481.621 398.953 486.354 408.647 484.007 414.944C481.656 421.241 480.548 426.049 475.476 417.774C470.404 409.498 465.739 393.039 471.453 387.338C477.162 381.638 477.162 381.638 477.162 381.638Z" fill="#BBD0FF"/>
<path d="M529.618 423.317C529.618 423.317 496.596 380.83 477.181 381.638C477.181 381.638 469.472 384.69 458.789 383.115L455.352 384.359C455.352 384.359 468.867 385.167 471.47 387.338C471.47 387.335 482.695 371.085 529.618 423.317Z" fill="#BBD0FF"/>
<path d="M458.788 383.115C458.788 383.115 444.827 379.775 432.637 388.975L433.84 390.699C433.84 390.699 448.283 383.369 457.291 384.503C466.302 385.633 458.788 383.115 458.788 383.115Z" fill="#BBD0FF"/>
<path d="M428.054 191.61L428.506 190.228C428.989 188.75 430.58 187.943 432.058 188.425L443.657 192.215C445.131 192.697 445.942 194.288 445.459 195.766L444.812 197.745C444.717 198.035 444.405 198.192 444.118 198.097C443.828 198.002 443.67 197.69 443.765 197.403L444.41 195.424C444.703 194.527 444.213 193.557 443.313 193.264L431.713 189.474C430.816 189.181 429.846 189.672 429.553 190.572L429.1 191.955C428.807 192.852 429.298 193.822 430.198 194.115L437.899 196.63C438.189 196.725 438.346 197.037 438.252 197.324C438.157 197.614 437.845 197.772 437.558 197.677L429.856 195.161C428.379 194.679 427.571 193.085 428.054 191.61Z" fill="#F99746"/>
<path d="M415.992 188.336L416.803 185.859C417.554 183.557 420.172 182.34 422.637 183.145L440.075 188.843C440.365 188.938 440.522 189.25 440.427 189.537C440.332 189.827 440.021 189.984 439.733 189.89L422.295 184.194C420.408 183.579 418.413 184.479 417.849 186.203L417.039 188.681C416.475 190.405 417.554 192.308 419.441 192.926L439.305 199.415C441.192 200.033 443.187 199.13 443.751 197.409C443.846 197.119 444.157 196.962 444.445 197.057C444.735 197.152 444.892 197.463 444.797 197.751C444.046 200.052 441.428 201.269 438.963 200.464L419.099 193.975C416.635 193.164 415.242 190.635 415.992 188.336Z" fill="#F99746"/>
<path d="M90.6914 399.973C90.6914 399.973 94.7549 448.391 147.211 451.56H299.336L304.585 388.956L90.6914 399.973Z" fill="#C0CCFF"/>
<g opacity="0.5">
<path opacity="0.5" d="M309.96 372.139L308.531 399.127L307.146 399.083L301.665 451.562H156.449C170.767 450.708 201.64 443.834 188.041 399.127C187.33 396.793 185.4 391.605 183.072 387.875C183.012 387.774 182.947 387.68 182.887 387.582C182.852 387.528 182.817 387.471 182.782 387.419C175.796 376.672 167.856 372.931 159.732 372.139H309.96Z" fill="#B6C4FF"/>
</g>
<path d="M309.991 372.139L307.177 399.081L301.696 451.56H156.48C170.799 450.706 201.672 443.831 188.074 399.124C187.364 396.79 185.434 391.602 183.106 387.872C183.046 387.772 182.981 387.677 182.921 387.579C182.886 387.525 182.848 387.468 182.816 387.417L309.991 372.139Z" fill="#8D9EFF"/>
<path d="M139.258 315.072H220.546L207.428 328.188L163.394 342.639L139.258 315.072Z" fill="#C0CCFF"/>
<path d="M312.552 323.055L309.958 372.14L308.53 399.127L307.144 399.084L187.095 395.254C185.797 392.494 184.455 390.046 183.073 387.875C183.013 387.775 182.948 387.68 182.888 387.582C182.853 387.528 182.818 387.471 182.782 387.42C175.797 376.672 167.857 372.931 159.733 372.14H159.717C140.522 370.288 120.283 384.888 109.082 362.425C90.6679 325.505 133.151 302.646 158.226 321.851C169.28 330.319 177.892 333.111 184.569 332.688C193.447 332.122 198.906 325.868 202.156 319.691C205.477 313.388 206.494 307.173 206.494 307.173L312.552 323.055Z" fill="#8D9EFF"/>
<path d="M294.669 307.804L212.246 322.889C212.246 322.889 255.905 309.932 195.621 272.311C148.532 242.924 148.242 181.641 212.517 185.089C286.036 189.033 313.506 303.372 313.506 303.372L294.669 307.804Z" fill="#8D9EFF"/>
<path d="M676.677 437.209V446.846C676.677 449.993 674.129 452.541 670.982 452.541H278.885L268.918 300.686H485.972C506.682 300.686 523.473 317.476 523.473 338.186V339.525C523.473 348.608 528.775 356.859 537.04 360.63L614.619 396.013L621.244 399.035L624.636 400.58L626.913 401.618L664.947 418.967C672.093 422.228 676.677 429.357 676.677 437.209Z" fill="#8C9DF4"/>
<path d="M249.539 300.687H216.322C205.105 300.687 199.439 314.205 207.303 322.201L225.929 341.141C233.866 349.21 247.593 343.591 247.593 332.274V313.335C247.599 306.349 256.522 300.687 249.539 300.687Z" fill="#060633"/>
<path d="M217.433 344.946H232.725V302.814H208.398L217.433 344.946Z" fill="#060633"/>
<path d="M215.822 300.687H197.197C185.98 300.687 180.314 314.205 188.178 322.202L206.804 341.141C214.741 349.211 228.468 343.592 228.468 332.274V313.335C228.468 306.35 222.805 300.687 215.822 300.687Z" fill="#6980E2"/>
<path d="M504.641 437.209V446.843C504.641 449.987 502.093 452.541 498.948 452.541H241.938V300.683H313.935C334.648 300.683 351.439 317.476 351.439 338.185V339.519C351.439 348.608 356.741 356.854 365.006 360.624L492.914 418.964C500.059 422.227 504.641 429.359 504.641 437.209Z" fill="#5067C9"/>
<path d="M401.585 369.066L512.152 418.386C514.5 419.433 517.04 419.975 519.609 419.975H641.079C644.156 419.975 645.064 415.784 642.264 414.51L535.999 366.133C534.494 365.447 532.86 365.097 531.206 365.103L402.317 365.582C400.36 365.588 399.794 368.266 401.585 369.066Z" fill="#6980E2"/>
<path d="M577.867 395.69L574.441 396.094C572.611 396.311 569.965 395.953 568.558 395.3L565.924 394.077C564.517 393.424 564.864 392.714 566.691 392.497L570.117 392.093C571.947 391.876 574.593 392.234 575.999 392.888L578.634 394.11C580.041 394.763 579.697 395.473 577.867 395.69Z" fill="#233862"/>
<path d="M565.082 387.471V393.446L579.512 394.969L579.509 389.25L565.082 387.471Z" fill="#233862"/>
<path d="M561.711 395.692L558.285 396.096C556.455 396.313 553.809 395.955 552.402 395.302L549.767 394.079C548.36 393.426 548.707 392.716 550.534 392.499L553.961 392.095C555.791 391.878 558.436 392.236 559.843 392.889L562.478 394.112C563.888 394.765 563.541 395.475 561.711 395.692Z" fill="#233862"/>
<path d="M548.902 387.473L548.905 393.445L563.332 394.971L563.329 389.251L548.902 387.473Z" fill="#233862"/>
<path d="M545.565 395.692L542.139 396.096C540.309 396.313 537.663 395.955 536.256 395.302L533.619 394.079C532.212 393.426 532.559 392.716 534.386 392.499L537.812 392.095C539.642 391.878 542.288 392.236 543.695 392.889L546.33 394.112C547.742 394.765 547.395 395.478 545.565 395.692Z" fill="#233862"/>
<path d="M532.754 387.474V393.448L547.181 394.972V389.252L532.754 387.474Z" fill="#233862"/>
<path d="M529.402 395.696L525.976 396.1C524.146 396.317 521.5 395.959 520.094 395.305L517.459 394.083C516.052 393.43 516.399 392.719 518.226 392.503L521.652 392.099C523.482 391.882 526.128 392.24 527.535 392.893L530.17 394.115C531.576 394.769 531.229 395.479 529.402 395.696Z" fill="#233862"/>
<path d="M516.594 387.477V393.449L531.02 394.975V389.255L516.594 387.477Z" fill="#233862"/>
<path d="M513.254 395.695L509.828 396.099C507.998 396.316 505.352 395.958 503.945 395.305L501.31 394.082C499.903 393.429 500.25 392.719 502.077 392.502L505.504 392.098C507.334 391.881 509.979 392.239 511.386 392.892L514.021 394.115C515.428 394.768 515.081 395.481 513.254 395.695Z" fill="#233862"/>
<path d="M500.457 387.479V393.451L514.884 394.974V389.255L500.457 387.479Z" fill="#233862"/>
<path d="M497.091 395.699L493.664 396.102C491.834 396.319 489.189 395.962 487.782 395.308L485.147 394.086C483.74 393.432 484.084 392.722 485.914 392.505L489.341 392.101C491.17 391.885 493.816 392.242 495.223 392.896L497.858 394.118C499.265 394.772 498.92 395.482 497.091 395.699Z" fill="#233862"/>
<path d="M484.293 387.48V393.454L498.72 394.977V389.258L484.293 387.48Z" fill="#233862"/>
<path d="M543.613 383.875L540.187 384.279C538.357 384.495 535.711 384.138 534.305 383.484L531.67 382.262C530.263 381.609 530.61 380.898 532.437 380.684L535.866 380.28C537.696 380.063 540.341 380.421 541.748 381.075L544.383 382.297C545.787 382.948 545.443 383.658 543.613 383.875Z" fill="#233862"/>
<path d="M530.805 375.656V381.63L545.231 383.154V377.434L530.805 375.656Z" fill="#233862"/>
<path d="M559.566 383.871L556.14 384.275C554.31 384.492 551.665 384.134 550.258 383.481L547.623 382.259C546.216 381.605 546.563 380.895 548.39 380.678L551.816 380.274C553.646 380.058 556.292 380.415 557.699 381.069L560.334 382.291C561.74 382.947 561.396 383.657 559.566 383.871Z" fill="#233862"/>
<path d="M546.781 375.656V381.628L561.208 383.151V377.431L546.781 375.656Z" fill="#233862"/>
<path d="M527.468 383.873L524.038 384.277C522.209 384.494 519.563 384.136 518.156 383.483L515.521 382.261C514.114 381.607 514.461 380.897 516.288 380.68L519.715 380.276C521.545 380.059 524.19 380.417 525.597 381.071L528.232 382.293C529.642 382.949 529.297 383.659 527.468 383.873Z" fill="#233862"/>
<path d="M514.656 375.657L514.659 381.629L529.086 383.152L529.083 377.433L514.656 375.657Z" fill="#233862"/>
<path d="M511.305 383.877L507.878 384.281C506.048 384.498 503.403 384.14 501.996 383.487L499.361 382.264C497.954 381.611 498.301 380.901 500.128 380.687L503.555 380.283C505.384 380.066 508.03 380.424 509.437 381.077L512.072 382.299C513.479 382.95 513.134 383.66 511.305 383.877Z" fill="#233862"/>
<path d="M498.508 375.658L498.511 381.632L512.937 383.156V377.436L498.508 375.658Z" fill="#233862"/>
<path d="M495.164 383.88L491.738 384.284C489.908 384.501 487.262 384.143 485.855 383.49L483.22 382.267C481.814 381.614 482.161 380.904 483.988 380.687L487.414 380.283C489.244 380.066 491.889 380.424 493.296 381.077L495.931 382.3C497.341 382.953 496.994 383.663 495.164 383.88Z" fill="#233862"/>
<path d="M482.387 375.66V381.632L496.813 383.155V377.439L482.387 375.66Z" fill="#233862"/>
<path d="M479.003 383.88L475.576 384.283C473.747 384.5 471.101 384.142 469.694 383.489L467.056 382.267C465.649 381.613 465.996 380.903 467.824 380.686L471.25 380.283C473.08 380.066 475.725 380.423 477.132 381.077L479.767 382.299C481.177 382.953 480.83 383.663 479.003 383.88Z" fill="#233862"/>
<path d="M466.191 375.66V381.635L480.618 383.158V377.438L466.191 375.66Z" fill="#233862"/>
<path d="M462.863 383.882L459.437 384.286C457.607 384.503 454.961 384.145 453.555 383.492L450.92 382.269C449.513 381.616 449.86 380.906 451.687 380.689L455.113 380.285C456.943 380.068 459.589 380.426 460.996 381.08L463.63 382.302C465.037 382.955 464.69 383.666 462.863 383.882Z" fill="#233862"/>
<path d="M450.055 375.664V381.636L464.481 383.159V377.439L450.055 375.664Z" fill="#233862"/>
<path d="M598.34 408.387L594.662 408.821C592.699 409.054 589.856 408.669 588.348 407.97L585.518 406.658C584.008 405.958 584.38 405.194 586.342 404.964L590.021 404.53C591.984 404.297 594.824 404.682 596.334 405.381L599.164 406.693C600.677 407.395 600.306 408.157 598.34 408.387Z" fill="#233862"/>
<path d="M584.59 399.567V405.977L600.076 407.615V401.475L584.59 399.567Z" fill="#233862"/>
<path d="M615.473 408.387L611.795 408.821C609.832 409.054 606.988 408.669 605.481 407.97L602.651 406.658C601.141 405.958 601.513 405.194 603.475 404.963L607.154 404.53C609.116 404.297 611.96 404.681 613.467 405.381L616.297 406.693C617.807 407.392 617.438 408.154 615.473 408.387Z" fill="#233862"/>
<path d="M601.758 399.566V405.977L617.244 407.611V401.472L601.758 399.566Z" fill="#233862"/>
<path d="M580.981 408.39L577.302 408.824C575.34 409.057 572.499 408.672 570.989 407.972L568.159 406.661C566.649 405.961 567.021 405.197 568.983 404.966L572.662 404.533C574.624 404.3 577.465 404.684 578.975 405.384L581.805 406.696C583.315 407.395 582.944 408.16 580.981 408.39Z" fill="#233862"/>
<path d="M567.254 399.569V405.98L582.741 407.614L582.738 401.477L567.254 399.569Z" fill="#233862"/>
<path d="M563.649 408.392L559.97 408.825C558.008 409.058 555.164 408.674 553.657 407.974L550.827 406.662C549.317 405.963 549.688 405.198 551.651 404.968L555.33 404.534C557.292 404.301 560.133 404.686 561.643 405.385L564.473 406.697C565.983 407.397 565.611 408.159 563.649 408.392Z" fill="#233862"/>
<path d="M549.906 399.569V405.98L565.393 407.617V401.477L549.906 399.569Z" fill="#233862"/>
<path d="M546.289 408.392L542.611 408.826C540.648 409.059 537.805 408.674 536.298 407.975L533.468 406.663C531.958 405.964 532.329 405.199 534.292 404.969L537.97 404.535C539.933 404.302 542.774 404.687 544.284 405.386L547.114 406.698C548.623 407.398 548.255 408.162 546.289 408.392Z" fill="#233862"/>
<path d="M532.559 399.572V405.983L548.045 407.62V401.48L532.559 399.572Z" fill="#233862"/>
<path d="M528.977 408.396L525.299 408.829C523.336 409.062 520.495 408.677 518.985 407.978L516.155 406.666C514.645 405.967 515.017 405.202 516.979 404.972L520.658 404.538C522.62 404.305 525.464 404.69 526.971 405.389L529.801 406.701C531.311 407.401 530.94 408.162 528.977 408.396Z" fill="#233862"/>
<path d="M515.242 399.571L515.245 405.985L530.729 407.619V401.48L515.242 399.571Z" fill="#233862"/>
<path d="M511.626 408.395L507.947 408.828C505.984 409.061 503.141 408.676 501.634 407.977L498.804 406.665C497.294 405.966 497.665 405.201 499.628 404.971L503.306 404.537C505.269 404.307 508.11 404.689 509.62 405.388L512.45 406.7C513.96 407.4 513.588 408.164 511.626 408.395Z" fill="#233862"/>
<path d="M497.883 399.574V405.985L513.37 407.622V401.482L497.883 399.574Z" fill="#233862"/>
<path d="M484.39 372.576L480.887 372.98C479.02 373.196 476.314 372.839 474.88 372.185L472.189 370.963C470.752 370.31 471.104 369.599 472.972 369.382L476.474 368.979C478.342 368.762 481.045 369.119 482.481 369.773L485.173 370.995C486.61 371.649 486.258 372.359 484.39 372.576Z" fill="#233862"/>
<path d="M471.328 364.357V370.329L486.064 371.855V366.135L471.328 364.357Z" fill="#233862"/>
<path d="M467.871 372.577L464.372 372.981C462.504 373.198 459.799 372.84 458.365 372.187L455.673 370.964C454.236 370.311 454.589 369.601 456.456 369.386L459.956 368.983C461.824 368.766 464.529 369.124 465.966 369.777L468.657 370.999C470.091 371.65 469.739 372.36 467.871 372.577Z" fill="#233862"/>
<path d="M454.797 364.359V370.331L469.533 371.855V366.135L454.797 364.359Z" fill="#233862"/>
<path d="M451.395 372.578L447.895 372.982C446.028 373.199 443.325 372.841 441.888 372.188L439.196 370.965C437.76 370.312 438.112 369.602 439.98 369.385L443.482 368.981C445.35 368.764 448.052 369.122 449.489 369.775L452.181 370.998C453.615 371.651 453.263 372.361 451.395 372.578Z" fill="#233862"/>
<path d="M438.328 364.359V370.331L453.064 371.857V366.138L438.328 364.359Z" fill="#233862"/>
<path d="M434.878 372.579L431.376 372.983C429.508 373.2 426.805 372.842 425.369 372.189L422.677 370.966C421.24 370.313 421.593 369.603 423.46 369.386L426.963 368.982C428.83 368.765 431.533 369.123 432.97 369.776L435.661 370.999C437.098 371.652 436.746 372.365 434.878 372.579Z" fill="#233862"/>
<path d="M421.828 364.363V370.335L436.564 371.858V366.138L421.828 364.363Z" fill="#233862"/>
<path d="M517.375 372.573L513.876 372.977C512.008 373.194 509.303 372.836 507.869 372.183L505.177 370.96C503.74 370.307 504.093 369.597 505.96 369.38L509.463 368.976C511.33 368.759 514.033 369.117 515.47 369.77L518.161 370.993C519.595 371.646 519.243 372.356 517.375 372.573Z" fill="#233862"/>
<path d="M504.309 364.354L504.311 370.325L519.044 371.849V366.132L504.309 364.354Z" fill="#233862"/>
<path d="M517.375 366.853L513.876 367.257C512.008 367.474 509.303 367.116 507.869 366.463L505.177 365.24C503.74 364.587 504.093 363.877 505.96 363.66L509.46 363.256C511.328 363.039 514.033 363.397 515.467 364.05L518.159 365.273C519.595 365.926 519.243 366.636 517.375 366.853Z" fill="#F9DDBF"/>
<path d="M535.382 372.573L531.88 372.976C530.012 373.193 527.307 372.836 525.873 372.182L523.181 370.96C521.744 370.306 522.096 369.596 523.964 369.379L527.466 368.976C529.334 368.759 532.037 369.116 533.473 369.77L536.165 370.992C537.602 371.646 537.25 372.356 535.382 372.573Z" fill="#233862"/>
<path d="M522.309 364.354V370.325L537.044 371.849V366.132L522.309 364.354Z" fill="#233862"/>
<path d="M535.382 366.853L531.882 367.257C530.015 367.474 527.312 367.116 525.873 366.463L523.181 365.24C521.744 364.587 522.096 363.877 523.964 363.66L527.467 363.256C529.334 363.039 532.037 363.397 533.474 364.05L536.165 365.273C537.605 365.926 537.252 366.636 535.382 366.853Z" fill="#F9DDBF"/>
<path d="M500.879 372.572L497.38 372.976C495.512 373.193 492.809 372.835 491.373 372.182L488.681 370.959C487.244 370.306 487.596 369.596 489.464 369.382L492.964 368.978C494.831 368.761 497.537 369.119 498.971 369.772L501.663 370.994C503.099 371.645 502.747 372.355 500.879 372.572Z" fill="#233862"/>
<path d="M487.809 364.354L487.811 370.328L502.544 371.852V366.132L487.809 364.354Z" fill="#233862"/>
<path d="M577.87 389.971L574.441 390.375C572.611 390.592 569.965 390.234 568.558 389.581L565.924 388.358C564.517 387.705 564.864 386.995 566.691 386.781L570.117 386.377C571.947 386.16 574.593 386.518 576 387.171L578.637 388.394C580.044 389.044 579.7 389.757 577.87 389.971Z" fill="#F9DDBF"/>
<path d="M561.715 389.973L558.288 390.377C556.459 390.593 553.813 390.236 552.406 389.582L549.771 388.36C548.364 387.707 548.711 386.996 550.538 386.782L553.965 386.378C555.795 386.161 558.44 386.519 559.847 387.173L562.482 388.395C563.889 389.046 563.545 389.756 561.715 389.973Z" fill="#F9DDBF"/>
<path d="M545.57 389.974L542.144 390.378C540.314 390.595 537.668 390.237 536.262 389.584L533.627 388.361C532.22 387.708 532.567 386.998 534.394 386.784L537.82 386.38C539.65 386.163 542.296 386.521 543.703 387.174L546.338 388.396C547.747 389.05 547.4 389.76 545.57 389.974Z" fill="#F9DDBF"/>
<path d="M529.41 389.976L525.984 390.38C524.154 390.597 521.508 390.239 520.101 389.586L517.467 388.364C516.06 387.71 516.407 387 518.234 386.783L521.66 386.379C523.49 386.162 526.136 386.52 527.542 387.174L530.177 388.396C531.587 389.049 531.24 389.76 529.41 389.976Z" fill="#F9DDBF"/>
<path d="M513.259 389.975L509.832 390.379C508.002 390.596 505.357 390.238 503.95 389.585L501.315 388.363C499.908 387.709 500.252 386.999 502.082 386.785L505.511 386.381C507.341 386.164 509.987 386.522 511.394 387.175L514.029 388.398C515.433 389.051 515.086 389.761 513.259 389.975Z" fill="#F9DDBF"/>
<path d="M497.109 389.979L493.68 390.383C491.85 390.6 489.204 390.242 487.798 389.589L485.163 388.366C483.756 387.713 484.1 387.003 485.93 386.789L489.356 386.385C491.186 386.168 493.832 386.526 495.239 387.179L497.874 388.401C499.283 389.052 498.936 389.762 497.109 389.979Z" fill="#F9DDBF"/>
<path d="M543.617 378.155L540.191 378.559C538.361 378.776 535.715 378.418 534.308 377.765L531.674 376.542C530.267 375.889 530.614 375.179 532.441 374.962L535.867 374.558C537.697 374.341 540.343 374.699 541.75 375.352L544.384 376.575C545.791 377.228 545.447 377.938 543.617 378.155Z" fill="#F9DDBF"/>
<path d="M559.594 378.152L556.167 378.556C554.338 378.773 551.692 378.415 550.285 377.762L547.65 376.54C546.243 375.886 546.59 375.176 548.417 374.959L551.844 374.555C553.673 374.338 556.319 374.696 557.726 375.35L560.361 376.572C561.768 377.228 561.421 377.938 559.594 378.152Z" fill="#F9DDBF"/>
<path d="M527.469 378.157L524.042 378.561C522.213 378.778 519.567 378.42 518.16 377.767L515.525 376.544C514.118 375.891 514.465 375.181 516.292 374.967L519.719 374.563C521.548 374.346 524.194 374.704 525.601 375.357L528.236 376.58C529.643 377.23 529.299 377.94 527.469 378.157Z" fill="#F9DDBF"/>
<path d="M511.321 378.158L507.895 378.562C506.065 378.779 503.419 378.421 502.012 377.768L499.378 376.545C497.971 375.892 498.315 375.182 500.145 374.967L503.571 374.564C505.401 374.347 508.047 374.704 509.453 375.358L512.088 376.58C513.495 377.231 513.151 377.941 511.321 378.158Z" fill="#F9DDBF"/>
<path d="M495.167 378.161L491.74 378.565C489.911 378.781 487.265 378.424 485.858 377.77L483.22 376.548C481.814 375.895 482.161 375.184 483.988 374.97L487.414 374.566C489.244 374.349 491.889 374.707 493.296 375.361L495.931 376.583C497.341 377.234 496.996 377.944 495.167 378.161Z" fill="#F9DDBF"/>
<path d="M479.004 378.16L475.578 378.564C473.748 378.781 471.102 378.423 469.695 377.769L467.06 376.547C465.653 375.894 466 375.184 467.827 374.969L471.254 374.565C473.084 374.349 475.729 374.706 477.136 375.36L479.771 376.582C481.181 377.233 480.834 377.946 479.004 378.16Z" fill="#F9DDBF"/>
<path d="M462.859 378.163L459.433 378.567C457.603 378.784 454.957 378.426 453.551 377.773L450.916 376.55C449.509 375.897 449.856 375.187 451.683 374.97L455.109 374.566C456.939 374.349 459.585 374.707 460.992 375.36L463.627 376.583C465.033 377.236 464.686 377.946 462.859 378.163Z" fill="#F9DDBF"/>
<path d="M598.344 402.25L594.666 402.684C592.703 402.917 589.86 402.532 588.352 401.833L585.522 400.521C584.012 399.822 584.384 399.057 586.346 398.827L590.025 398.393C591.987 398.163 594.828 398.545 596.338 399.244L599.168 400.556C600.678 401.256 600.31 402.017 598.344 402.25Z" fill="#F9DDBF"/>
<path d="M615.481 402.247L611.802 402.681C609.84 402.914 606.996 402.529 605.489 401.829L602.659 400.517C601.149 399.818 601.521 399.054 603.483 398.823L607.162 398.39C609.124 398.156 611.968 398.541 613.475 399.241L616.305 400.553C617.815 401.252 617.444 402.016 615.481 402.247Z" fill="#F9DDBF"/>
<path d="M581.001 402.251L577.322 402.684C575.359 402.917 572.518 402.533 571.009 401.833L568.179 400.521C566.669 399.822 567.04 399.057 569.003 398.827L572.681 398.393C574.644 398.16 577.485 398.545 578.994 399.244L581.825 400.556C583.334 401.256 582.963 402.02 581.001 402.251Z" fill="#F9DDBF"/>
<path d="M563.653 402.252L559.974 402.686C558.012 402.919 555.168 402.534 553.661 401.835L550.831 400.523C549.321 399.823 549.692 399.059 551.655 398.828L555.333 398.395C557.296 398.162 560.137 398.546 561.647 399.246L564.477 400.558C565.987 401.257 565.615 402.019 563.653 402.252Z" fill="#F9DDBF"/>
<path d="M546.317 402.253L542.638 402.687C540.676 402.917 537.835 402.535 536.325 401.836L533.495 400.524C531.985 399.824 532.356 399.06 534.319 398.829L537.998 398.396C539.96 398.163 542.801 398.548 544.311 399.247L547.141 400.559C548.651 401.258 548.28 402.023 546.317 402.253Z" fill="#F9DDBF"/>
<path d="M528.977 402.256L525.299 402.69C523.336 402.923 520.495 402.538 518.985 401.839L516.155 400.527C514.645 399.827 515.017 399.063 516.979 398.832L520.658 398.399C522.62 398.166 525.461 398.551 526.971 399.25L529.801 400.562C531.311 401.261 530.94 402.023 528.977 402.256Z" fill="#F9DDBF"/>
<path d="M511.637 402.255L507.959 402.689C505.996 402.922 503.153 402.537 501.645 401.838L498.815 400.526C497.305 399.826 497.677 399.062 499.639 398.832L503.318 398.398C505.28 398.165 508.121 398.55 509.631 399.249L512.461 400.561C513.971 401.263 513.603 402.025 511.637 402.255Z" fill="#F9DDBF"/>
<path d="M484.394 366.857L480.891 367.261C479.024 367.478 476.321 367.12 474.884 366.466L472.192 365.244C470.756 364.591 471.108 363.881 472.976 363.666L476.478 363.262C478.346 363.046 481.051 363.403 482.488 364.057L485.18 365.279C486.614 365.93 486.261 366.64 484.394 366.857Z" fill="#F9DDBF"/>
<path d="M467.906 366.857L464.407 367.261C462.539 367.478 459.837 367.12 458.4 366.467L455.708 365.244C454.271 364.591 454.624 363.881 456.492 363.667L459.991 363.263C461.859 363.046 464.564 363.404 466.001 364.057L468.693 365.28C470.127 365.93 469.774 366.643 467.906 366.857Z" fill="#F9DDBF"/>
<path d="M451.413 366.859L447.911 367.263C446.043 367.48 443.34 367.122 441.904 366.469L439.212 365.246C437.775 364.593 438.128 363.883 439.995 363.666L443.498 363.262C445.365 363.045 448.068 363.403 449.505 364.056L452.197 365.279C453.633 365.932 453.281 366.642 451.413 366.859Z" fill="#F9DDBF"/>
<path d="M434.905 366.861L431.403 367.265C429.535 367.482 426.83 367.124 425.396 366.471L422.704 365.249C421.267 364.595 421.62 363.885 423.488 363.671L426.99 363.267C428.858 363.05 431.56 363.408 432.997 364.061L435.689 365.284C437.126 365.934 436.773 366.647 434.905 366.861Z" fill="#F9DDBF"/>
<path d="M500.904 366.853L497.402 367.257C495.534 367.474 492.829 367.116 491.392 366.463L488.7 365.241C487.264 364.587 487.616 363.877 489.484 363.663L492.986 363.259C494.854 363.042 497.556 363.4 498.993 364.053L501.685 365.276C503.124 365.926 502.772 366.639 500.904 366.853Z" fill="#F9DDBF"/>
<path d="M396.714 355.777C395.172 354.522 397.164 346.995 397.164 346.995C397.164 346.995 405.85 341.785 406.278 346.732C406.706 351.679 412.781 354.696 416.327 355.772C418.775 356.517 419.363 358.005 419.49 358.859L396.714 355.777Z" fill="#182B49"/>
<path d="M375.343 357.659C373.801 356.404 375.793 348.876 375.793 348.876C375.793 348.876 384.479 343.666 384.907 348.613C385.335 353.56 391.41 356.577 394.956 357.653C397.404 358.399 397.989 359.89 398.119 360.741L375.343 357.659Z" fill="#233862"/>
<path d="M371.253 274.523C371.253 274.523 406.997 283.335 409.637 294.823C412.277 306.311 407.062 348.237 407.062 348.237C407.062 348.237 402.635 349.611 396.628 347.41C396.628 347.41 394.514 333.846 394.126 321.019C393.874 312.665 396.962 303.684 395.164 303.508C390.608 303.064 347.135 299.366 344.394 285.135C341.651 270.907 371.253 274.523 371.253 274.523Z" fill="#233862"/>
<path d="M347.33 275.116C347.33 275.116 387.029 283.267 389.672 294.755C392.312 306.24 387.333 348.903 387.333 348.903C387.333 348.903 388.33 351.183 374.684 348.958C374.684 348.958 371.209 331.916 370.824 319.091C370.572 310.737 373.858 303.949 372.058 303.806C342.911 301.483 330.51 308.867 331.645 279.543C332.207 265.062 347.33 275.116 347.33 275.116Z" fill="#2B478B"/>
<path d="M330.847 277.409C330.776 278.366 341.142 280.277 345.767 280.098C368.966 279.198 372.487 274.766 372.495 274.756C372.915 274.224 370.156 258.277 370.001 252.308C369.86 246.868 369.765 240.406 369.754 232.737C369.744 223.513 355.466 213.592 355.203 213.592L355.2 213.597C355.2 214.925 353.108 217.376 349.885 217.587C346.06 217.837 341.365 215.934 341.365 213.73C341.365 213.708 333.137 240.975 329.312 232.816L330.847 277.409Z" fill="#FF943B"/>
<path d="M355.215 213.594C355.215 213.594 368.489 213.48 371.685 217.961C374.881 222.442 381.886 246.545 378.229 254.566C374.572 262.587 367.733 251.248 363.938 246.337C360.14 241.422 355.215 213.594 355.215 213.594Z" fill="#FF943B"/>
<path d="M355.328 211.567L355.319 212.938C355.319 212.938 355.694 217.229 350.408 217.858C345.122 218.487 341.12 216.186 341.261 212.873C341.739 210.309 342.259 208.547 342.294 206.427C342.308 205.639 342.254 204.801 342.107 203.858L352.348 203.654L355.366 204.148L355.328 211.567Z" fill="#FFD1B1"/>
<path d="M355.392 204.145L355.354 211.567C354.267 212.074 353.039 212.38 351.662 212.38C346.956 212.38 343.915 208.929 342.324 206.425C342.337 205.636 342.283 204.798 342.137 203.855L352.378 203.652L355.392 204.145Z" fill="#E2915A"/>
<path d="M341.332 202.207C342.519 208.602 350.771 208.393 354.336 207.989C355.339 207.878 355.97 207.751 355.97 207.751C357.101 207.447 357.732 205.666 358.025 203.332C358.608 198.713 357.873 191.931 357.093 190.196C355.919 187.586 353.707 184.764 345.396 186.8C337.09 188.838 339.809 194.015 341.332 202.207Z" fill="#FFD1B1"/>
<path d="M368.785 231.555C368.785 231.555 373.919 242.894 373.77 246.293C373.77 246.293 372.334 246.201 369.891 246.927L368.785 231.555Z" fill="#EF873A"/>
<path d="M359.645 184.11C359.645 184.11 355.989 183.829 351.673 181.953C348.171 180.429 343.755 182.107 342.321 182.864C342.359 182.633 342.451 182.316 342.671 182.002C342.671 182.002 342.025 182.457 341.933 183.097C341.865 183.145 341.838 183.181 341.855 183.192C341.855 183.192 341.125 183.059 340.656 183.27C340.656 183.27 340.984 183.224 341.101 183.436C341.115 183.457 341.131 183.476 341.153 183.492C335.69 186.133 335.186 194.763 336.943 196.761C339.057 199.163 341.594 204.576 341.594 204.576C341.594 204.576 342.519 203.297 342.134 201.182C341.749 199.068 343.576 199.068 345.883 198.106C348.19 197.143 346.268 194.454 348.285 192.82C350.304 191.185 357.705 192.148 357.607 190.898C360.356 189.892 359.645 184.392 359.645 184.11Z" fill="#233862"/>
<path d="M339.66 252.796C341.829 261.5 366.716 268.954 372.046 269.871C371.821 266.097 371.414 257.084 371.257 251.039L339.66 252.796Z" fill="#EF873A"/>
<path d="M344.816 255.626C344.594 255.626 339.606 254.88 338.711 254.436C337.819 253.988 333.732 248.182 336.407 246.694C339.083 245.206 346.266 251.161 346.266 251.161L344.816 255.626Z" fill="#FFD1B1"/>
<path d="M375.157 257.35C375.157 257.35 355.867 258.396 342.92 255.626C342.92 255.626 342.592 251.885 346.661 250.226C346.661 250.226 366.837 245.949 371.684 247.142C376.534 248.329 375.157 257.35 375.157 257.35Z" fill="#FF943B"/>
<path d="M330.847 242.211C334.85 247.039 340.082 250.978 345.853 251.902C345.902 251.829 347.599 249.251 347.282 245.459C347.136 243.705 346.555 241.691 345.181 239.544C344.758 238.885 344.381 238.113 344.048 237.256C340.898 229.219 341.367 213.727 341.367 213.727C341.367 213.727 327.989 215.129 323.82 221.084C321.264 224.733 324.52 234.581 330.847 242.211Z" fill="#FF943B"/>
<path d="M354.349 207.991C355.352 207.88 355.984 207.753 355.984 207.753C357.114 207.449 357.746 205.668 358.038 203.334C355.916 203.858 354.945 205.495 354.539 206.194C354.357 206.506 354.319 207.211 354.349 207.991Z" fill="#E2915A"/>
<path d="M359.743 211.607C359.743 211.607 364.365 203.982 360.771 203.652C357.179 203.321 355.734 205.752 355.216 206.644C354.696 207.539 355.352 211.567 355.352 211.567L359.743 211.607Z" fill="#FFD1B1"/>
<path d="M342.126 245.204C342.267 246.169 342.557 247.058 342.912 247.849C344.04 250.354 345.853 251.902 345.853 251.902C357.854 246.486 360.283 227.885 360.687 217.668C360.849 213.562 360.687 210.808 360.687 210.808C355.273 209.016 353.752 212.131 353.752 212.131C353.752 212.131 347.36 227.329 344.045 237.261C342.782 241.059 341.963 244.092 342.126 245.204Z" fill="#FF943B"/>
<path d="M330.848 242.211C334.851 247.039 340.083 250.977 345.854 251.902C357.855 246.486 360.284 227.885 360.688 217.669C360.688 217.669 355.009 238.262 347.28 245.461C345.884 246.765 344.418 247.627 342.911 247.852C342.911 247.852 333.165 245.098 331.121 242.504C330.975 242.317 330.886 242.225 330.848 242.211Z" fill="#EF873A"/>
<path d="M212.078 443.758C212.078 444.078 212.097 444.398 212.138 444.707C212.257 445.702 212.566 446.637 213.021 447.48C213.379 448.136 213.832 448.735 214.355 449.261C215.765 450.668 217.706 451.538 219.855 451.538H329.254C333.55 451.538 337.034 448.055 337.034 443.761C337.034 441.612 336.163 439.668 334.754 438.261C333.347 436.852 331.401 435.981 329.254 435.981H219.858C215.561 435.979 212.078 439.462 212.078 443.758Z" fill="#2B478B"/>
<path d="M220.419 434.572H257.928C258.584 434.572 259.121 434.035 259.121 433.379C259.121 432.723 258.584 432.187 257.928 432.187H220.419C219.763 432.187 219.227 432.723 219.227 433.379C219.224 434.035 219.761 434.572 220.419 434.572Z" fill="#2B478B"/>
<path d="M222.485 435.979H226.551V434.569H222.485V435.979Z" fill="#233862"/>
<path d="M213.02 447.481C213.377 448.137 213.83 448.736 214.353 449.261C215.763 450.668 217.704 451.538 219.853 451.538H243.028V447.481H213.02Z" fill="#233862"/>
<path d="M351.51 441.479V446.036C351.51 446.534 351.442 447.019 351.318 447.478C350.686 449.817 348.55 451.535 346.01 451.535H232.055C229.515 451.535 227.379 449.817 226.747 447.478C226.622 447.019 226.555 446.534 226.555 446.036V441.479C226.555 438.44 229.016 435.979 232.055 435.979H346.013C349.049 435.979 351.51 438.44 351.51 441.479Z" fill="#F99746"/>
<path d="M351.321 447.481C350.689 449.82 348.553 451.538 346.013 451.538H232.058C229.518 451.538 227.382 449.82 226.75 447.481H351.321Z" fill="#EF873A"/>
<path d="M340.168 443.786C340.168 446.203 341.046 448.361 342.431 449.792C342.464 449.825 342.494 449.855 342.524 449.887C343.594 450.953 344.95 451.592 346.427 451.592C348.734 451.592 354.451 448.112 357.997 445.802C359.761 444.65 360.989 443.788 360.989 443.788C360.989 443.788 359.764 442.926 357.997 441.774C354.454 439.462 348.734 435.981 346.427 435.981C345.76 435.981 345.118 436.112 344.511 436.353C343.494 436.762 342.586 437.486 341.873 438.435C341.084 439.476 340.526 440.785 340.29 442.24C340.287 442.257 340.285 442.273 340.285 442.292C340.206 442.772 340.168 443.273 340.168 443.786Z" fill="#8C9DF4"/>
<path d="M340.168 443.786C340.168 446.204 341.046 448.361 342.431 449.793L359.97 443.759L340.285 442.289C340.206 442.772 340.168 443.273 340.168 443.786Z" fill="#6980E2"/>
<path d="M341.883 438.429L359.381 443.208L344.52 436.347C343.504 436.757 342.598 437.483 341.883 438.429Z" fill="#9FB1FF"/>
<path d="M356.871 443.785C356.871 444.715 357.348 445.507 358.012 445.799C359.777 444.647 361.005 443.785 361.005 443.785C361.005 443.785 359.78 442.923 358.012 441.771C357.348 442.061 356.871 442.856 356.871 443.785Z" fill="#182D4C"/>
<path d="M549.477 238.126L556.66 240.777L556.025 232.631L563.936 234.672L562.209 227.442L570.108 225.773L572.032 219.2" stroke="#F5A623" stroke-width="0.949789" stroke-linecap="round" stroke-linejoin="round"/>
</svg>
