<svg width="70" height="70" viewBox="0 0 70 70" fill="none" xmlns="http://www.w3.org/2000/svg">
<g id="Frame 15">
<circle id="Ellipse 34" cx="35" cy="38" r="30" fill="#F32020" fill-opacity="0.15"/>
<g id="free-icon-description-1642055 1">
<path id="Vector" d="M16.8641 62H60.1307C61.8026 62 63.0807 60.7219 63.0807 59.05V8.9C63.0807 7.22814 61.8026 5.95 60.1307 5.95H48.3307C48.3307 4.27814 47.0526 3 45.3807 3H31.6141C29.9422 3 28.6641 4.27814 28.6641 5.95H16.8641C15.1922 5.95 13.9141 7.22814 13.9141 8.9V59.05C13.9141 60.7219 15.1922 62 16.8641 62ZM30.6307 5.95C30.6307 5.3599 31.024 4.96667 31.6141 4.96667H45.3807C45.9708 4.96667 46.3641 5.3599 46.3641 5.95V10.8667C46.3641 11.4568 45.9708 11.85 45.3807 11.85H31.6141C31.024 11.85 30.6307 11.4568 30.6307 10.8667V5.95ZM15.8807 8.9C15.8807 8.3099 16.274 7.91667 16.8641 7.91667H28.6641V10.8667C28.6641 12.5385 29.9422 13.8167 31.6141 13.8167H45.3807C46.6589 13.8167 47.7406 13.0302 48.1339 11.85H57.1807V49.2167H50.2974V56.1H19.8141V33.975V11.85H25.7141C26.2571 11.85 26.6974 11.4097 26.6974 10.8667C26.6974 10.3236 26.2571 9.88333 25.7141 9.88333H18.8474C18.2951 9.88333 17.8474 10.331 17.8474 10.8833V57.0667C17.8474 57.619 18.2951 58.0667 18.8474 58.0667H51.674L59.1474 50.5932V10.8833C59.1474 10.331 58.6997 9.88333 58.1474 9.88333H48.3307V7.91667H60.1307C60.7208 7.91667 61.1141 8.3099 61.1141 8.9V59.05C61.1141 59.6401 60.7208 60.0333 60.1307 60.0333H16.8641C16.274 60.0333 15.8807 59.6401 15.8807 59.05V8.9ZM55.8042 51.1833L52.2641 54.7234V51.1833H55.8042Z" fill="#F32020"/>
<path id="Vector_2" d="M35.0977 8.38905C35.0977 7.91907 35.4786 7.53809 35.9486 7.53809H42.1134C42.5833 7.53809 42.9643 7.91907 42.9643 8.38905C42.9643 8.85902 42.5833 9.24001 42.1134 9.24001H35.9486C35.4786 9.24001 35.0977 8.85902 35.0977 8.38905Z" fill="#F32020"/>
<path id="Vector_3" d="M22.7656 34.4501C22.7656 35.0024 23.2133 35.4501 23.7656 35.4501H53.2323C53.7846 35.4501 54.2323 35.0024 54.2323 34.4501V20.7168C54.2323 20.1645 53.7846 19.7168 53.2323 19.7168H23.7656C23.2133 19.7168 22.7656 20.1645 22.7656 20.7168V34.4501ZM24.3163 21.3809H52.6817V33.6347H24.3163V21.3809Z" fill="#F32020"/>
<path id="Vector_4" d="M31.6914 16.3317C31.6914 15.8617 32.0724 15.4807 32.5424 15.4807H44.4558C44.9258 15.4807 45.3068 15.8617 45.3068 16.3317C45.3068 16.8016 44.9258 17.1826 44.4558 17.1826H32.5424C32.0724 17.1826 31.6914 16.8016 31.6914 16.3317Z" fill="#F32020"/>
<path id="Vector_5" d="M22.7656 40.5365C22.7656 40.0665 23.1466 39.6855 23.6166 39.6855H34.698C35.168 39.6855 35.549 40.0665 35.549 40.5365C35.549 41.0065 35.168 41.3875 34.698 41.3875H23.6166C23.1466 41.3875 22.7656 41.0065 22.7656 40.5365Z" fill="#F32020"/>
<path id="Vector_6" d="M37.8164 40.5365C37.8164 40.0665 38.1974 39.6855 38.6674 39.6855H53.6821C54.1521 39.6855 54.5331 40.0665 54.5331 40.5365C54.5331 41.0065 54.1521 41.3875 53.6821 41.3875H38.6674C38.1974 41.3875 37.8164 41.0065 37.8164 40.5365Z" fill="#F32020"/>
<path id="Vector_7" d="M22.7656 46.2103C22.7656 45.7404 23.1466 45.3594 23.6166 45.3594H40.598C41.068 45.3594 41.449 45.7404 41.449 46.2103C41.449 46.6803 41.068 47.0613 40.598 47.0613H23.6166C23.1466 47.0613 22.7656 46.6803 22.7656 46.2103Z" fill="#F32020"/>
<path id="Vector_8" d="M43.7227 46.2103C43.7227 45.7404 44.1036 45.3594 44.5736 45.3594H53.6884C54.1583 45.3594 54.5393 45.7404 54.5393 46.2103C54.5393 46.6803 54.1583 47.0613 53.6884 47.0613H44.5736C44.1036 47.0613 43.7227 46.6803 43.7227 46.2103Z" fill="#F32020"/>
<path id="Vector_9" d="M22.7656 51.8832C22.7656 51.4132 23.1466 51.0322 23.6166 51.0322H46.498C46.968 51.0322 47.349 51.4132 47.349 51.8832C47.349 52.3532 46.968 52.7341 46.498 52.7341H23.6166C23.1466 52.7341 22.7656 52.3532 22.7656 51.8832Z" fill="#F32020"/>
</g>
</g>
</svg>
